<?xml version="1.0" encoding="utf-8"?>
<!-- Generator: Adobe Illustrator 20.1.0, SVG Export Plug-In . SVG Version: 6.00 Build 0)  -->
<svg version="1.1" id="Layer_1" xmlns="http://www.w3.org/2000/svg" xmlns:xlink="http://www.w3.org/1999/xlink" x="0px" y="0px"
	 viewBox="0 0 30 30" style="enable-background:new 0 0 30 30;" xml:space="preserve">
<style type="text/css">
	.st0{fill:#0089CF;}
	.st1{fill:#FFFFFF;}
</style>
<g>
	<circle class="st0" cx="15" cy="15" r="15"/>
	<g>
		<path class="st1" d="M9.1,19.7l4.9,2.9c0.6,0.4,1.4,0.4,2.1,0l4.9-2.9L15,16.2L9.1,19.7z"/>
		<path class="st1" d="M15,8.1c0.2,0,0.4,0,0.5,0.1l3.5,2.1l-4,2.4l-4-2.4l3.5-2.1C14.6,8.1,14.8,8.1,15,8.1 M15,7.1
			c-0.4,0-0.7,0.1-1,0.3l-4.9,2.9l5.9,3.5l5.9-3.5L16,7.3C15.7,7.2,15.4,7.1,15,7.1L15,7.1z"/>
		<path class="st1" d="M3.4,15.9l4.5,2.7l5.9-3.5l-5.9-3.5l-4.5,2.7C2.8,14.5,2.8,15.5,3.4,15.9z"/>
		<path class="st1" d="M16.2,15l5.9,3.5l4.5-2.7c0.6-0.4,0.6-1.3,0-1.7l-4.5-2.7L16.2,15z"/>
	</g>
</g>
</svg>
