<?xml version="1.0" encoding="utf-8"?>
<!-- Generator: Adobe Illustrator 20.1.0, SVG Export Plug-In . SVG Version: 6.00 Build 0)  -->
<svg version="1.1" id="Layer_1" xmlns="http://www.w3.org/2000/svg" xmlns:xlink="http://www.w3.org/1999/xlink" x="0px" y="0px"
	 viewBox="0 0 64 64" style="enable-background:new 0 0 64 64;" xml:space="preserve">
<style type="text/css">
	.st0{fill:#CC8842;}
</style>
<g id="Layer_19">
	<circle class="st0" cx="19.6" cy="18.8" r="3.9"/>
	<g>
		<path class="st0" d="M32,0.5C14.6,0.5,0.5,14.6,0.5,32S14.6,63.5,32,63.5S63.5,49.4,63.5,32S49.4,0.5,32,0.5z M25.3,45.1
			c0,0.5-0.4,1.3-0.8,1.6c-3.2,1.9-6.6,3.1-10.3,5.2c0-8.3,0-16.1,0-24.4c2,2.7,3.5,5.5,5.5,8.2c1.9-2.5,3.5-5.3,5.8-8.2
			C25.3,33.5,25.4,39.6,25.3,45.1z M26.3,21.7c-2,4.1-4.4,6.5-6.7,10.5c-2.2-3.9-4.6-6.4-6.6-10.4c-1.4-3.1-0.3-6.3,2.2-8.2
			c2.7-2.1,6.2-2.1,8.9,0C26.6,15.4,27.7,18.6,26.3,21.7z M39.2,52.4c-3.7-2-7.1-3.7-10.3-5.6c-0.5-0.3-1-1.2-1-1.9
			c-0.1-7.2,0.1-23.7-0.1-26.1c3.2,1.5,7.4,3.2,10.2,4.8c0.6,0.4,1.2,1.4,1.2,2.1C39.2,34.4,39.2,43,39.2,52.4z M41.5,52.2
			c0-9.4,0-17.9,0.1-26.5c0-0.7,0.5-1.8,1.2-2.1c3.1-1.9,6.5-2.9,10.2-4.8c0,7.1,0.2,12.9,0.1,19.3c-0.1,7.5,0.8,8.7-2.4,10.6
			C49.6,49.4,44,51.4,41.5,52.2z"/>
	</g>
</g>
</svg>
