<?xml version="1.0" encoding="utf-8"?>
<!-- Generator: Adobe Illustrator 20.1.0, SVG Export Plug-In . SVG Version: 6.00 Build 0)  -->
<svg version="1.1" id="Layer_3" xmlns="http://www.w3.org/2000/svg" xmlns:xlink="http://www.w3.org/1999/xlink" x="0px" y="0px"
	 viewBox="0 0 64 64" style="enable-background:new 0 0 64 64;" xml:space="preserve">
<style type="text/css">
	.st0{fill:#FF7BCA;}
	.st1{fill:#FFFFFF;stroke:#FFFFFF;stroke-width:1.9686;stroke-miterlimit:10;}
	.st2{fill:none;stroke:#FFFFFF;stroke-width:1.9686;stroke-miterlimit:10;}
	.st3{fill:none;stroke:#FFFFFF;stroke-width:1.9686;stroke-linecap:round;stroke-miterlimit:10;}
	.st4{fill:#FFFFFF;}
</style>
<g id="Layer_35">
	<path class="st0" d="M0.5,31.7c-0.2,17.6,14.2,32,31.8,31.8c16.8-0.1,31.1-14.4,31.2-31.2C63.7,14.7,49.3,0.4,31.7,0.5
		C14.9,0.6,0.6,14.9,0.5,31.7z"/>
	<path class="st1" d="M16.3,28.9v15.9c0,1.4,1.2,2.6,2.6,2.6h26.4c1.4,0,2.6-1.2,2.6-2.6V28.9c0-0.6-0.5-1.1-1.1-1.1H17.3
		C16.7,27.8,16.3,28.3,16.3,28.9z"/>
	<path class="st2" d="M39.2,20.2h2.2c0.8,0,1.6,0.4,2,1.2l3.1,6.4"/>
	<path class="st2" d="M17.5,27.8l3.1-6.3c0.4-0.7,1.2-1.2,2.1-1.2h2.3"/>
	<line class="st3" x1="22.7" y1="24.5" x2="41.4" y2="24.5"/>
	<path class="st4" d="M38.6,11.9h-13c-0.7,0-1,0.8-1,1.8V24h14.8V13.7C39.4,12.5,39.3,11.9,38.6,11.9z M30.5,22c0,0.4-0.3,0-0.6,0
		h-1.6c-0.4,0-0.8,0.3-0.8,0v-1.7c0-0.4,0.4-0.3,0.8-0.3h1.6c0.4,0,0.6-0.1,0.6,0.3C30.5,20.4,30.5,22,30.5,22z M30.5,17
		c0,0.4-0.3,0-0.6,0h-1.6c-0.4,0-0.8,0.3-0.8,0v-1.7c0-0.4,0.4-0.3,0.8-0.3h1.6c0.4,0,0.6-0.1,0.6,0.3C30.5,15.5,30.5,17,30.5,17z"
		/>
</g>
</svg>
