<?xml version="1.0" encoding="utf-8"?>
<!-- Generator: Adobe Illustrator 20.1.0, SVG Export Plug-In . SVG Version: 6.00 Build 0)  -->
<svg version="1.1" id="Layer_3" xmlns="http://www.w3.org/2000/svg" xmlns:xlink="http://www.w3.org/1999/xlink" x="0px" y="0px"
	 viewBox="0 0 64 64" style="enable-background:new 0 0 64 64;" xml:space="preserve">
<style type="text/css">
	.st0{fill:#39BA99;}
</style>
<g id="Layer_34">
	<path class="st0" d="M32,0.5C14.6,0.5,0.5,14.6,0.5,32S14.6,63.5,32,63.5S63.5,49.4,63.5,32S49.4,0.5,32,0.5z M44.4,31.4h-8
		c0,0-2.3,1.8-2.4,1.9c0.6,0,9.5,0,9.5,0v2.9H30.7c0,0-0.1,0.1-0.2,0.2c-0.7,0.8-1.4,1.6-1.8,2.6c-0.6,1.5-0.3,2.9,1,3.9
		c0.9,0.8,1.9,1.2,3.1,1.4c1.9,0.4,3.7,0.1,5.5-0.5c1.5-0.5,4.7-1.5,4.7-1.5V48c0,0-4.7,1-7,1.2c-1.5,0.1-3.1,0.2-4.5,0.1
		c-3.2-0.1-5.9-1.2-8.2-3.4c-1.1-1.1-1.9-2.4-2.3-3.9c-0.4-1.9,0-3.5,1.1-5.1c0-0.1,0.4-0.5,0.5-0.6c-0.8,0-2.8,0-2.8,0v-2.9h4.8
		c0,0,1.8-1.3,2.6-1.9c-2.2,0-6.5,0-6.5,0s0-2.2,0-3.2c0,0,10.6,0,10.8,0c0.9-0.7,1.8-1.5,2.4-2.5c0.4-0.6,0.6-1.2,0.7-1.9
		c0.1-1.1-0.4-1.9-1.1-2.6c-1.1-1-2.3-1.6-3.7-1.8c-2.3-0.3-4.3,0.3-6.4,1c-0.5,0.2-1,0.4-1.5,0.6c0-0.5,0.4-3.7,0.5-5
		c0-0.4,0-0.4,0.4-0.5c2.7-0.6,5.4-0.9,8.2-0.9c2,0,3.8,0.2,5.7,0.9c1.5,0.5,2.8,1.3,3.6,2.6c1,1.4,1.3,2.9,1.2,4.5
		c-0.1,1.8-0.3,2.6-2.2,5.5c1.5,0,3.8,0,5.3,0C44.4,29.2,44.4,31.4,44.4,31.4z"/>
</g>
</svg>
