<?xml version="1.0" encoding="utf-8"?>
<!-- Generator: Adobe Illustrator 20.1.0, SVG Export Plug-In . SVG Version: 6.00 Build 0)  -->
<svg version="1.1" id="Layer_3" xmlns="http://www.w3.org/2000/svg" xmlns:xlink="http://www.w3.org/1999/xlink" x="0px" y="0px"
	 viewBox="0 0 64 64" style="enable-background:new 0 0 64 64;" xml:space="preserve">
<style type="text/css">
	.st0{fill:#775230;}
</style>
<g id="Layer_33">
	<g>
		<path class="st0" d="M21.5,35.2c-0.7,0-1.4,0-2.2,0c-0.2,0-0.2,0.1-0.2,0.3c0,0.6,0,1.1,0,1.7c0,0.6,0,1.2,0,1.8
			c0,0.2,0.1,0.2,0.2,0.2c0.7,0,1.5,0,2.2,0c0.2,0,0.2-0.1,0.2-0.2c0-1.2,0-2.3,0-3.4C21.7,35.2,21.6,35.2,21.5,35.2z"/>
		<path class="st0" d="M32.1,37.1c0,0.6,0,1.2,0,1.8c0,0.2,0.1,0.2,0.2,0.2c0.7,0,1.5,0,2.2,0c0.2,0,0.2-0.1,0.2-0.2
			c0-1.2,0-2.3,0-3.4c0-0.2-0.1-0.2-0.2-0.2c-0.9,0-1.3,0-2.2,0c-0.2,0-0.2,0.1-0.2,0.2C32.1,35.9,32.1,36.5,32.1,37.1z"/>
		<path class="st0" d="M21.7,41.9c0-0.2,0-0.2-0.2-0.2c-0.7,0-1.5,0-2.2,0c-0.2,0-0.2,0.1-0.2,0.2c0,0.6,0,1.2,0,1.7
			c0,0.6,0,1.2,0,1.8c0,0.2,0,0.2,0.2,0.2c0.7,0,1.5,0,2.2,0c0.2,0,0.2,0,0.2-0.2C21.7,44.2,21.7,43,21.7,41.9z"/>
		<path class="st0" d="M25.8,39.1c0.5,0,1,0,1.5,0c0.3,0,0.6,0,1,0c0-1.3,0-2.6,0-3.9h-0.1c-0.8,0-1.6,0-2.4,0
			c-0.2,0-0.2,0.1-0.2,0.2c0,1.2,0,2.4,0,3.5C25.6,39,25.7,39.1,25.8,39.1z"/>
		<path class="st0" d="M32,0.5C14.6,0.5,0.5,14.6,0.5,32S14.6,63.5,32,63.5S63.5,49.4,63.5,32C63.5,14.7,49.4,0.5,32,0.5z
			 M47.8,49.3c-10.4,0-20.9,0-31.3,0c-0.8,0-1.4-0.6-1.4-1.4c0-5.2,0-10.3,0-15.6c0-0.5,0.2-0.9,0.7-1.2c2.6-1.7,5.1-3.4,7.7-5.1
			c0.8-0.5,1.7-0.2,2,0.6c0.1,0.2,0.1,0.4,0.1,0.6c0,1.2,0,2.3,0,3.4c0,0.2,0.1,0.3,0.3,0.3c0.5,0,5.7-3.4,8.1-4.9
			c0.6-0.4,1.2-0.4,1.7,0c0.4,0.3,0.5,0.7,0.5,1.1c0,0.5,0,2.9,0,3.5c0,0.2,0.1,0.3,0.3,0.3c0.7,0,2.9,0,3.2,0
			c0.1-0.7,1.3-14.7,1.4-14.9c0.2-0.5,0.6-0.7,1.2-0.7c1.3,0,2.5,0,3.7,0c0.8,0,1.3,0.5,1.3,1.3c0.2,2.6,1.9,29.5,2,31.3
			C49.1,48.8,48.6,49.3,47.8,49.3z"/>
		<path class="st0" d="M34.5,41.6c-0.7,0-1.4,0-2.1,0c-0.2,0-0.3,0.1-0.3,0.3c0,1.1,0,2.3,0,3.3c0,0.1,0,0.2,0,0.3
			c0.9,0,1.7,0,2.5,0c0.2,0,0.2-0.1,0.2-0.2c0-1.2,0-2.3,0-3.4C34.8,41.7,34.7,41.6,34.5,41.6z"/>
		<path class="st0" d="M28,41.6c-0.7,0-1.4,0-2.2,0c-0.2,0-0.2,0.1-0.2,0.3c0,1.2,0,2.3,0,3.4c0,0.2,0.1,0.2,0.3,0.2
			c0.7,0,1.4,0,2.2,0c0.2,0,0.2-0.1,0.2-0.3c0-0.6,0-1.1,0-1.7c0-0.6,0-1.2,0-1.7C28.3,41.7,28.2,41.6,28,41.6z"/>
	</g>
</g>
</svg>
