<?xml version="1.0" encoding="utf-8"?>
<!-- Generator: Adobe Illustrator 20.1.0, SVG Export Plug-In . SVG Version: 6.00 Build 0)  -->
<svg version="1.1" id="Layer_3" xmlns="http://www.w3.org/2000/svg" xmlns:xlink="http://www.w3.org/1999/xlink" x="0px" y="0px"
	 viewBox="0 0 64 64" style="enable-background:new 0 0 64 64;" xml:space="preserve">
<style type="text/css">
	.st0{fill:#FFD144;}
</style>
<g id="Layer_32">
	<path class="st0" d="M32,0.5C14.6,0.5,0.5,14.6,0.5,32S14.6,63.5,32,63.5S63.5,49.4,63.5,32S49.4,0.5,32,0.5z M37.6,24.1
		c0.6-0.3,1.1-0.6,1.5-1c0.2-0.2,0.3-0.4,0.6-0.7c0.1,0.3,0.1,0.5,0.2,0.7c0.3,1.1,0.4,2.2,0.3,3.3c-0.2,1.8-1,3.1-2.5,4.1
		c-0.8,0.5-1.6,0.9-2.5,1.3c-0.8,0.3-1.6,0.8-2.2,1.4c0,0,0,0-0.1,0.1c-0.1-0.3-0.1-0.5-0.2-0.8c-0.2-1.9,0-3.6,0.8-5.3
		c0.5-1,1.2-1.8,2.2-2.3C36.4,24.6,37,24.4,37.6,24.1z M40.1,34.1c-0.2,1.8-0.9,3.1-2.4,4.1c-0.7,0.5-1.5,0.9-2.3,1.2
		c-0.9,0.3-1.7,0.8-2.3,1.5c0,0,0,0-0.1,0.1c-0.1-0.4-0.2-0.8-0.2-1.2c-0.1-1.8,0.1-3.4,0.9-5c0.4-0.9,1.1-1.6,2-2.1
		c0.6-0.3,1.3-0.6,2-1c0.6-0.3,1.1-0.6,1.6-1c0.2-0.2,0.3-0.4,0.5-0.7c0,0.1,0.1,0.1,0.1,0.2C40,31.5,40.3,32.7,40.1,34.1z
		 M24.9,22.6c0-0.1,0-0.1,0.1-0.2c0,0.1,0.1,0.1,0.1,0.2c0.3,0.5,0.7,0.9,1.2,1.2c0.6,0.3,1.2,0.7,1.9,0.9c2,0.8,3.1,2.4,3.4,4.3
		c0.3,1.3,0.4,2.7,0.1,4c0,0.1-0.1,0.2-0.1,0.4c-0.1-0.1-0.2-0.2-0.3-0.3c-0.5-0.5-1.2-0.9-1.9-1.2c-1-0.4-1.9-0.8-2.7-1.4
		c-1.3-0.9-2-2.2-2.2-3.6C24.3,25.3,24.5,23.9,24.9,22.6z M31.7,48.2c0,0.1-0.1,0.2-0.1,0.3c-0.1,0-0.1,0-0.1-0.1
		c-0.6-0.7-1.3-1.1-2.1-1.4c-1-0.4-2-0.9-2.9-1.6c-1.2-0.9-1.8-2.1-2.1-3.5c-0.3-1.5,0-2.9,0.3-4.2v-0.1c0,0,0,0,0.1-0.1l0.1,0.1
		c0.3,0.6,0.8,1,1.4,1.3c0.5,0.3,1.1,0.6,1.6,0.8c2,0.8,3.1,2.4,3.5,4.4C31.9,45.5,32,46.9,31.7,48.2z M31.7,40.6
		c0,0.1,0,0.2-0.1,0.3c0,0,0,0,0,0.1c0,0-0.1,0-0.1-0.1c-0.6-0.7-1.4-1.1-2.2-1.4c-1-0.4-1.9-0.9-2.8-1.5c-1.2-0.9-1.8-2.1-2.1-3.5
		c-0.3-1.5,0-2.9,0.3-4.2c0,0,0-0.1,0.1-0.1l0.1,0.1c0.3,0.6,0.8,1,1.4,1.3c0.6,0.3,1.3,0.6,1.9,0.9c1.3,0.6,2.3,1.5,2.8,2.8
		c0.2,0.6,0.4,1.2,0.6,1.9C31.9,38.2,32,39.4,31.7,40.6z M32,26.6c-0.7-1.3-1.6-2.4-2.2-3.7c-0.3-0.8-0.6-1.7-0.5-2.6
		c0.1-0.6,0.3-1.1,0.6-1.6c0.4-0.6,0.8-1.2,1.2-1.8c0.3-0.4,0.5-0.8,0.8-1.2c0.1-0.2,0.2-0.2,0.4,0c0.9,1,1.7,2,2.3,3.1
		c0.4,0.7,0.7,1.5,0.7,2.3s-0.2,1.6-0.6,2.3c-0.7,1.1-1.4,2.2-2.1,3.3C32.4,26.9,32.1,26.9,32,26.6z M40.1,41.7
		c-0.2,1.7-1,3.1-2.4,4c-0.6,0.4-1.2,0.7-1.9,1c-1,0.5-2.1,0.8-2.9,1.8h-0.1c-0.1-0.4-0.2-0.8-0.2-1.2c-0.1-1.6,0.1-3.1,0.7-4.7
		c0.5-1.1,1.3-2,2.4-2.5c0.6-0.3,1.2-0.5,1.8-0.9c0.5-0.3,1-0.6,1.4-0.9c0.3-0.2,0.5-0.5,0.7-0.8l0.1,0.1
		C40.1,39.1,40.3,40.4,40.1,41.7z"/>
</g>
</svg>
