<?xml version="1.0" encoding="utf-8"?>
<!-- Generator: Adobe Illustrator 20.1.0, SVG Export Plug-In . SVG Version: 6.00 Build 0)  -->
<svg version="1.1" id="Layer_2" xmlns="http://www.w3.org/2000/svg" xmlns:xlink="http://www.w3.org/1999/xlink" x="0px" y="0px"
	 viewBox="0 0 64 64" style="enable-background:new 0 0 64 64;" xml:space="preserve">
<style type="text/css">
	.st0{fill:#EC6526;}
</style>
<g id="Layer_28">
	<g>
		<path class="st0" d="M21.7,39.1c0-0.2,0.1-0.4-0.2-0.5c-1.2-0.7-2.4-1.4-3.6-2.1c-0.3-0.1-0.6,0-0.6,0.3c0,1.4,0,2.8,0,4
			c0,0.3,0.1,0.4,0.4,0.5c1.1,0.5,1.8,1,2.9,1.6c1,0.5,1.1,0.7,1.1,0C21.7,41.7,21.7,40.4,21.7,39.1z"/>
		<path class="st0" d="M28.8,40.8c0-1.3,0-2.7,0-3.9c0-0.6-0.1-0.4-1.1,0.1c-0.9,0.4-1.6,0.9-2.7,1.5c-0.5,0.2-0.6,0.4-0.6,0.8
			c0,1.3,0,2.6,0,3.9c0,0.3,0.3,0.5,0.6,0.3c1.3-0.7,2.4-1.4,3.5-2.1C28.8,41.2,28.8,41,28.8,40.8z"/>
		<path class="st0" d="M26.8,33.6c-1.1-0.6-2.2-1.3-3.2-1.9c-0.3-0.2-0.5-0.3-0.9-0.1c-1.2,0.7-2.1,1.2-3.2,1.9
			c-0.4,0.2-0.6,0.4,0,0.8c1.2,0.8,2,1.1,3.2,1.8c0.4,0.2,0.6,0.2,0.9,0.1c1.1-0.6,2.2-1.3,3.2-2C27.1,34.1,27.1,33.8,26.8,33.6z"/>
		<path class="st0" d="M29.2,17.5c0.5,0.3,1.2,0.7,1.8,1.1c1.6,0.7,1.6,0.7,3.2,0c0.7-0.5,1.3-0.8,1.8-1.1c0.4-0.2,0.4-0.8,0-1
			c-1.1-0.6-1.9-1.1-3-1.7c-0.3-0.2-0.8-0.1-1,0c-1.1,0.6-1.8,1-2.9,1.7C28.9,16.7,28.9,17.2,29.2,17.5z"/>
		<path class="st0" d="M27.5,24.5c1,0.6,2,1.1,3.1,1.7c0.4,0.2,0.9-0.1,0.9-0.5c0-1.3,0-2.2,0-3.3c0-0.3-0.1-0.7-0.5-0.9
			c-1.2-0.7-2.1-1.3-3.2-1.9c-0.3-0.1-0.5-0.1-0.5,0.2c0,1.4,0,2.8,0,4C27.1,24.2,27.2,24.4,27.5,24.5z"/>
		<path class="st0" d="M34.1,22.7c0,0.7,0,2.6,0,3.2c0,0.5,0.1,0.8,0.6,0.4c1.1-0.7,2.2-1.3,3.2-1.9c0.2-0.1,0.3-0.3,0.3-0.5
			c0-1.4,0-2.8,0-4.2c0-0.3-0.1-0.5-0.4-0.2c-1,0.6-2,1.1-3,1.7C34.3,21.6,34.2,22,34.1,22.7z"/>
		<path class="st0" d="M36.3,44c-0.8-0.4-1-0.4-1.7-0.8c-0.6-0.3-0.7-0.8-0.7-1.4c0-2.6,0-5.1,0-7.7c0-0.7,0.3-1.1,0.8-1.5
			c2.3-1.3,4.6-2.7,6.9-3.9c0.6-0.3,1.1-0.2,1.6,0.1c0.8,0.4,1.5,0.9,2.3,1.3c0.5,0.3,0.7,0.2,0.7-0.4c0-1,0-2,0-3.1
			c0-1.5-0.3-2.3-1.7-3.1c-1-0.5-1.8-1-2.8-1.5c-0.3-0.2-0.7,0.1-0.7,0.4c0,0.8,0,1.6,0,2.4c0,0.6-0.2,1-0.7,1.3
			c-2.3,1.3-4.5,2.6-6.8,3.8c-0.6,0.3-1.1,0.3-1.7,0c-2.3-1.3-4.5-2.6-6.9-3.8c-0.5-0.3-0.7-0.7-0.7-1.3c0-0.8,0-1.5,0-2.4
			c0-0.4-0.4-0.6-0.8-0.4c-1.2,0.7-2,1.1-3.2,1.9c-0.1,0.1-0.6,0.5-0.9,1.1c-0.3,0.6-0.2,1.3-0.2,1.5c0,1.5,0,2,0,3.1
			c0,0.4,0.4,0.6,0.7,0.4c0.4-0.2,0.8-0.4,1.2-0.7c1.1-0.8,2.2-1.3,3.4-0.2c0.1,0.1,0.2,0.1,0.3,0.2c1.9,1.1,3.8,2.2,5.7,3.3
			c0.5,0.3,0.8,0.7,0.8,1.4c0,2.7,0,5.2,0,7.9c0,0.6-0.2,0.9-0.7,1.2c-0.6,0.3-1.2,0.7-1.8,1c-0.5,0.3-0.5,1,0,1.3
			c1.1,0.7,2.3,1.3,3.3,2c0.3,0.2,0.5,0.1,0.8-0.1c2.2-1.2,1.8-1,3.1-1.8C37.2,45,37.2,44.4,36.3,44z"/>
		<path class="st0" d="M48,36.8c0-0.3-0.3-0.5-0.6-0.3c-1.3,0.7-2.4,1.4-3.5,2.1c-0.2,0.1-0.2,0.2-0.2,0.4c0,1.3,0,2.7,0,4
			c0,0.3,0.3,0.5,0.6,0.3c1.2-0.7,2.4-1.3,3.4-2c0.3-0.1,0.3-0.3,0.3-0.6C48,39.5,48,38.2,48,36.8z"/>
		<path class="st0" d="M32,0.5C14.6,0.5,0.5,14.6,0.5,32S14.6,63.5,32,63.5S63.5,49.4,63.5,32S49.4,0.5,32,0.5z M50.6,34.8
			c-0.1,2.4-0.1,4.7,0,7c0,0.7-0.3,1.2-0.9,1.5c-2.3,1.3-4.4,2.6-6.7,3.8c-0.6,0.3-1.1,0.3-1.6-0.1c-0.8-0.6-1.5-0.6-2.4,0
			c-1.7,1.2-3.5,2.2-5.4,3.1c-0.7,0.4-1.4,0.3-2.2-0.1c-1.9-1.1-3.8-2.2-5.7-3.3c-0.7-0.4-1.2-0.1-1.7,0.2c-0.7,0.5-1.3,0.5-2,0.1
			c-2.2-1.3-4.3-2.5-6.5-3.7c-0.5-0.3-0.8-0.7-0.8-1.4c0-2.7,0-5.3,0-8c0-0.6,0.2-1.1,0.8-1.3c1-0.4,1.3-1,1.2-2.1
			c-0.1-2.2,0-4.4,0-6.6c0-0.7,0.2-1.1,0.8-1.5c2.2-1.2,4.2-2.4,6.3-3.5c0.3-0.2,0.6-0.3,0.5-0.7c-0.4-2,0.9-2.7,2.3-3.4
			c1.7-0.9,3.3-1.9,4.9-2.9c0.7-0.4,1.5-0.4,2.2,0c2.1,1.2,4.2,2.4,6.3,3.6c0.7,0.4,1.1,0.9,0.9,1.7c-0.1,0.9,0.1,1.5,1.1,2
			c2,1,3.9,2.3,5.9,3.3c0.5,0.3,0.7,0.7,0.7,1.2c0,1.3,0,2.6,0,3.8c0,1.2,0,2.5,0,3.6c0,0.5,0.1,0.8,0.5,1
			C50.3,32.7,50.7,33.5,50.6,34.8z"/>
		<path class="st0" d="M40.8,38.5c-1.2-0.7-2.4-1.4-3.5-2c-0.3-0.2-0.5-0.2-0.5,0.3c0,1.4,0,2.7,0,4c0,0.2,0,0.3,0.2,0.5
			c1.2,0.7,2.4,1.4,3.6,2.1c0.3,0.1,0.6,0,0.6-0.3c0-1.4,0-2.7,0-3.9C41,38.9,41,38.7,40.8,38.5z"/>
		<path class="st0" d="M46.4,34c0-0.2-0.3-0.3-0.5-0.5c-1-0.6-2.1-1.2-3.1-1.8c-0.4-0.2-0.7-0.2-1.1,0c-1.1,0.6-2.2,1.2-3.2,1.9
			c-0.3,0.1-0.3,0.5,0,0.7c1.1,0.6,2.1,1.1,3,1.8c0.6,0.4,1,0.3,1.5,0c1-0.6,2-1.1,2.9-1.7C46.1,34.3,46.5,34.2,46.4,34z"/>
	</g>
</g>
</svg>
