<?xml version="1.0" encoding="utf-8"?>
<!-- Generator: Adobe Illustrator 20.1.0, SVG Export Plug-In . SVG Version: 6.00 Build 0)  -->
<svg version="1.1" id="Layer_2" xmlns="http://www.w3.org/2000/svg" xmlns:xlink="http://www.w3.org/1999/xlink" x="0px" y="0px"
	 viewBox="0 0 64 64" style="enable-background:new 0 0 64 64;" xml:space="preserve">
<style type="text/css">
	.st0{fill:#7660A8;}
</style>
<g id="Layer_31">
	<g>
		<path class="st0" d="M32,0.5C14.6,0.5,0.5,14.6,0.5,32S14.6,63.5,32,63.5S63.5,49.4,63.5,32S49.4,0.5,32,0.5z M43.1,51.7h-22
			L21,48.3c0,0,1.3,0,1.9,0c0.5,0,0.6-0.2,0.7-0.6c0.5-2.4,3.1-15,3.1-15s-2.4,0-3.5,0c-0.3,0-0.4,0.1-0.4,0.4c0,0.5,0,1,0,1.5
			c0,0.3-0.1,0.4-0.5,0.4c-0.3,0-0.6,0-0.9,0c-0.2,0-0.4-0.2-0.4-0.4c0-0.8,0-1.7,0-2.5c0-0.9,0.3-1.3,1-1.9c1.2-1,4.4-3.4,4.8-3.9
			c0.2-0.3,0.2-0.6,0.2-0.9c0-0.4,0-0.8,0-1.2c0-0.3-0.2-0.5-0.5-0.5h-3.1c-0.3,0-0.5,0.2-0.5,0.5v1.2c0,0.3-0.3,0.6-0.6,0.6H21
			c0-1.3,0-2.6,0-3.8c0-0.1,0.1-0.3,0.2-0.4c0.9-0.7,1.7-1.4,2.6-2.2c1-0.8,2-1.6,3-2.4c0.1-0.1,0.1-0.4,0.1-0.7
			c0-0.7,0.1-1.4,0.7-1.9c0.4-0.4,1-0.6,1.5-0.6c1.9,0,3.7,0,5.5,0c1,0,2.1,0.3,2.2,2.2c0,0.7,0.3,1.2,0.8,1.6
			c1.1,0.8,4.2,3.4,4.8,3.9c0.1,0.1,0.2,0.3,0.2,0.4c0,1.2,0.1,3.8,0.1,3.8s-0.8,0-1.2,0c-0.4,0-0.4-0.2-0.4-0.6c0-0.5,0-0.7,0-1.2
			c0-0.3-0.2-0.5-0.5-0.5c-0.7,0-2.2,0-3.2,0c-0.4,0-0.6,0.2-0.6,0.6c0,0.4-0.1,0.7,0,1.2c0.1,0.5,0.4,0.8,0.8,1.2
			c0.3,0.3,4,3.3,4.2,3.5c0.3,0.2,0.7,0.4,0.8,0.7c0.1,0.4,0.1,3.8,0.1,4c0,0.2-0.6,0.1-0.6,0.1s-0.6,0.1-0.9-0.1
			c-0.2-0.1-0.1-0.3-0.1-0.5c0-0.4,0-0.8,0-1.1c0-0.2,0.1-0.3-0.1-0.5c-0.1-0.1-0.4-0.1-0.5-0.1c-0.2,0-3.3,0-3.3,0s3,15.1,3.3,15.4
			c0.2,0.2,0.6,0.2,0.9,0.2c0.6,0,1.2,0,1.7,0V51.7z"/>
		<path class="st0" d="M30.1,22.1h3.1c0,0-0.8-0.8-1.3-1.2c-0.2-0.2-0.4-0.2-0.6,0C31.1,21.2,30.1,22.1,30.1,22.1z"/>
		<path class="st0" d="M32,25.9c0.5-0.7,1.5-2.1,1.5-2.1h-3.3c0,0,1,1.4,1.5,2.1C31.7,26,31.9,26,32,25.9z"/>
		<path class="st0" d="M32.1,34.5l1.8-1.7h-4.2l1.7,1.7C31.6,34.7,31.9,34.7,32.1,34.5z"/>
		<path class="st0" d="M29.6,29.4c0,0,0.9-1.2,1.3-1.8c0.1-0.3,0.2-0.4,0-0.7c-0.4-0.6-1.3-1.8-1.3-1.8V29.4z"/>
		<path class="st0" d="M31.5,28.7C31,29.5,30,31,30,31h3.6c0,0-1-1.6-1.5-2.3C31.9,28.5,31.6,28.5,31.5,28.7z"/>
		<path class="st0" d="M37,22.1c0.9,0,1.8,0,2.9,0c-1.1-0.9-2.1-1.7-3.2-2.6c0,0.8,0,1.5,0,2.2C36.7,21.9,36.9,22.1,37,22.1z"/>
		<path class="st0" d="M26.8,21.6v-2c-1,0.8-2,1.6-3.1,2.5h2.5C26.6,22.1,26.8,21.8,26.8,21.6z"/>
		<path class="st0" d="M35.2,38C35.2,38,35.2,38,35.2,38c-0.2-1.4-0.8-3.9-0.8-3.9s-0.9,0.9-1.4,1.3c-0.2,0.2-0.2,0.5,0,0.7
			C33.8,36.7,35.2,38,35.2,38z"/>
		<path class="st0" d="M37.1,31c0.2,0.1,2.7,0,2.7,0l-3.1-2.6c0,0-0.1,2,0.2,2.3C37,30.9,37,30.9,37.1,31z"/>
		<path class="st0" d="M34,25.4L32.8,27c-0.2,0.2-0.2,0.5,0,0.7l1.2,1.8V25.4z"/>
		<path class="st0" d="M32.1,44.6c-0.4-0.2-0.7,0-1,0.3c-0.3,0.3-4.1,3.5-4.1,3.5h9.6C36.6,48.3,32.6,44.8,32.1,44.6z"/>
		<path class="st0" d="M32.9,19.4c-0.1,0.1-0.1,0.3,0,0.5l1,1c0-0.8,0-2.7,0-2.7L32.9,19.4z"/>
		<path class="st0" d="M26.9,30.5c0-0.6,0-1.3,0-2.1c-1.1,0.9-2.1,1.8-3.1,2.6c0.9,0,1.7,0,2.5,0C26.8,31,26.9,30.9,26.9,30.5z"/>
		<path class="st0" d="M33.2,43.9c0.2,0.2,0.4,0.3,0.5,0.4c0.3,0.3,0.7,0.5,1,0.8c0.7,0.6,1.5,1.1,2.2,1.7c0.1,0.1,0.2,0.1,0.2,0.2
			c-0.5-2.1-0.9-3.9-1.4-5.9c-0.7,0.6-1.5,1.2-2.2,1.7C33.3,43.1,32.8,43.4,33.2,43.9z"/>
		<path class="st0" d="M27.8,41.1L26.4,47c0,0,2.7-2.1,3.9-3.1c0.3-0.2,0.3-0.6,0-0.8C29.5,42.4,27.8,41.1,27.8,41.1z"/>
		<path class="st0" d="M33.2,17h-3c0,0,0.8,0.9,1.2,1.2c0.2,0.2,0.4,0.2,0.6,0C32.5,17.8,33.2,17,33.2,17z"/>
		<path class="st0" d="M29.6,18.1v2.6c0,0,0.7-0.6,0.9-0.8c0.2-0.2,0.2-0.4,0-0.6C30.2,19,29.6,18.1,29.6,18.1z"/>
		<path class="st0" d="M30.6,35.3c-0.2-0.2-1.4-1.3-1.4-1.4c0,0-0.9,3.9-0.9,3.9c0.6-0.5,2.3-1.9,2.4-2.2
			C30.7,35.5,30.6,35.4,30.6,35.3z"/>
		<path class="st0" d="M31.4,42.3c0.3,0.3,0.6,0.3,0.9,0c0.3-0.3,3-2.5,3-2.5s-1.9-1.9-3-2.9c-0.2-0.2-0.6-0.2-0.8,0
			c-1.1,1-3.2,2.9-3.2,2.9S30.5,41.6,31.4,42.3z"/>
	</g>
</g>
</svg>
