<?xml version="1.0" encoding="utf-8"?>
<!-- Generator: Adobe Illustrator 20.1.0, SVG Export Plug-In . SVG Version: 6.00 Build 0)  -->
<svg version="1.1" id="Layer_3" xmlns="http://www.w3.org/2000/svg" xmlns:xlink="http://www.w3.org/1999/xlink" x="0px" y="0px"
	 viewBox="0 0 64 64" style="enable-background:new 0 0 64 64;" xml:space="preserve">
<style type="text/css">
	.st0{fill:#50C0E8;}
</style>
<g id="Layer_29">
	<g>
		<path class="st0" d="M31.5,31.8c-0.6,0.3-1.2,0.4-1.9,0.4c-0.6,0-1.2-0.1-1.7-0.4l-1.3,4.4c-0.1,0.4,0.2,0.7,0.6,0.7h4.8
			c0.4,0,0.6-0.3,0.6-0.7L31.5,31.8z"/>
		<circle class="st0" cx="29.7" cy="27.9" r="2.1"/>
		<path class="st0" d="M32.9,39.8h-6.8c-0.3,0-0.6,0.2-0.7,0.5c-0.2,0.6-0.5,1.2-0.7,1.9c-0.1,0.4-0.7,1.3-0.3,1.7
			c0.3,0.3,0.7,0.4,1.1,0.4c1.4,0,2.8,0,4.1,0c1.3,0,2.7,0.1,4,0c0.4,0,1-0.1,1.1-0.5c0.1-0.3-0.2-0.7-0.3-1
			c-0.3-0.8-0.6-1.5-0.8-2.3c0,0,0-0.1,0-0.1C33.5,40,33.3,39.8,32.9,39.8z"/>
		<path class="st0" d="M32,0.5C14.6,0.5,0.5,14.6,0.5,32S14.6,63.5,32,63.5S63.5,49.4,63.5,32S49.4,0.5,32,0.5z M34.4,22.8
			c0.7-0.4,1.6-0.9,2.2-1.3c2.3-1.3,2.1-1.8,1.3-3.9c-0.5-1.2-0.9-2.4-1.5-3.4c-0.6-1.1-0.4-1.8,0.7-2.4c3-1.6,3.4-2.4,5.9,1.2
			c3.1,4.5,6.1,9.3,6.3,14.9c0.1,1.4-0.3,2-1.4,2.5c-0.9,0.4-2.2-0.2-2.6-0.8c-1.2-1.4-2.3-2.9-3.3-4.3c-0.3-0.4-0.7-0.5-1.1-0.2
			c-1.3,0.8-3,1.7-3.9,2.3c-0.5,0.3-1.1,0.1-1.4-0.4l-1.5-2.8C33.8,23.6,33.9,23.1,34.4,22.8z M17.7,32.4c1.9-1.1,3.7-2.2,5.7-3.2
			c0.4-0.2,0.8,0,0.9,0.3c0.3,0.7,0.5,1.4,0.3,1.8c-0.8,1.8-1.1,3.6-3.1,4.8c-1.1,0.7-2.2,1.2-3.2,1.9c-1,0.6-1.5,0.3-2-0.7
			C14.6,34.3,14.6,34.3,17.7,32.4z M50.6,49.4c-6.1-0.1-30.2-0.1-36.2,0c-2.8-0.1-2.2-2.7-2.2-2.7s-0.2-2.6,2.1-2.6c1.7,0,3.3,0,5,0
			c1,0,1.5-0.3,1.9-1.2c1.6-3.8,3.1-7.6,4.6-11.4c0.2-0.5,0.1-1.1-0.1-1.6c-0.8-2-0.3-4.2,1.3-5.3c1.5-1.2,3.5-1.2,5,0
			c1.7,1.2,2.2,3.1,1.4,5.3c-0.2,0.6-0.3,1.4,0,2c1.5,3.7,3.1,7.4,4.6,11.1c0.4,1.1,1,1.3,2.1,1.3c3.4,0,7,0.1,10.4,0
			c2.3,0,2.2,2.2,2.2,2.2S52.8,49.4,50.6,49.4z"/>
	</g>
</g>
</svg>
