<?xml version="1.0" encoding="utf-8"?>
<!-- Generator: Adobe Illustrator 20.1.0, SVG Export Plug-In . SVG Version: 6.00 Build 0)  -->
<svg version="1.1" id="Layer_3" xmlns="http://www.w3.org/2000/svg" xmlns:xlink="http://www.w3.org/1999/xlink" x="0px" y="0px"
	 viewBox="0 0 64 64" style="enable-background:new 0 0 64 64;" xml:space="preserve">
<style type="text/css">
	.st0{fill:#FFD144;}
</style>
<g id="Layer_26">
	<path class="st0" d="M32,0.5C14.6,0.5,0.5,14.6,0.5,32S14.6,63.5,32,63.5S63.5,49.4,63.5,32S49.4,0.5,32,0.5z M24.9,49.2h-8
		l0.1-7.8c0-0.1,0.1-0.2,0.2-0.3l7-6.2c0.3-0.3,0.7-0.1,0.7,0.3V49.2z M35.8,49.2h-8.1V38.7c0-0.4,0.5-0.6,0.8-0.3l2.5,2.9
		c0.2,0.2,0.5,0.2,0.6,0l3.5-3.1c0.3-0.3,0.8-0.1,0.8,0.3L35.8,49.2L35.8,49.2z M47.3,49.2H39V35.1c0-0.1,0.1-0.2,0.1-0.3l7.4-6.7
		c0.3-0.3,0.8-0.1,0.8,0.3V49.2z M48.4,23.5l-0.7-0.7c-0.4-0.4-0.9-0.4-1.3,0L31.8,36.2c-0.3,0.3-0.7,0.2-1,0L25.1,30
		c-0.3-0.3-0.7-0.3-1-0.1L17.3,36c-0.6,0.5-1.5,0.5-2-0.1l0,0c-0.5-0.6-0.4-1.5,0.1-2l8.7-7.8c0.3-0.3,0.8-0.3,1,0.1l5.7,6.3
		c0.3,0.3,0.7,0.3,1,0l12.7-11.7c0.4-0.3,0.4-0.9,0.1-1.3l-0.7-0.8c-0.3-0.4-0.2-0.9,0.3-1c1.6-0.5,4.7-1.4,7.2-2.1
		c0.5-0.1,0.9,0.3,0.8,0.8c-0.8,2.5-2,5.6-2.6,7.1C49.3,23.7,48.7,23.8,48.4,23.5z"/>
</g>
</svg>
