<?xml version="1.0" encoding="utf-8"?>
<!-- Generator: Adobe Illustrator 20.1.0, SVG Export Plug-In . SVG Version: 6.00 Build 0)  -->
<svg version="1.1" id="Layer_2" xmlns="http://www.w3.org/2000/svg" xmlns:xlink="http://www.w3.org/1999/xlink" x="0px" y="0px"
	 viewBox="0 0 64 64" style="enable-background:new 0 0 64 64;" xml:space="preserve">
<style type="text/css">
	.st0{fill:#FD4C48;}
	.st1{fill:#FFFFFF;}
</style>
<g id="Layer_36">
	<g>
		<path class="st0" d="M32,0C14.3,0,0,14.3,0,32s14.3,32,32,32s32-14.3,32-32S49.7,0,32,0z"/>
	</g>
</g>
<g>
	<path class="st1" d="M31.7,32.1l8-18.9c-10.4-3.9-22.7,0.4-26.6,10.8c-3.8,10.2,0.6,22.2,10.7,26.6c10.3,4.5,22.2-0.4,26.6-10.7
		c2.2-5.1,2.1-10.6,0.2-15.4L31.7,32.1z"/>
	<path class="st1" d="M52.1,20.6c-1.7-3.6-4.5-6.8-8.3-8.7c-0.1,0-0.1,0-0.1,0l-6.3,14.7L52,20.7C52.1,20.7,52.1,20.6,52.1,20.6
		L52.1,20.6z"/>
</g>
</svg>
