<?xml version="1.0" encoding="utf-8"?>
<!-- Generator: Adobe Illustrator 20.1.0, SVG Export Plug-In . SVG Version: 6.00 Build 0)  -->
<svg version="1.1" id="Layer_1" xmlns="http://www.w3.org/2000/svg" xmlns:xlink="http://www.w3.org/1999/xlink" x="0px" y="0px"
	 viewBox="0 0 64 64" style="enable-background:new 0 0 64 64;" xml:space="preserve">
<style type="text/css">
	.st0{fill:#FFD044;}
</style>
<g id="Layer_20">
	<g>
		<path class="st0" d="M22.2,34.6c-0.5-1.5-1.1-2.9-1.6-4.3c-0.5-1.3-1-2.5-1.4-3.7c-0.3-0.6-0.5-1.3-0.8-1.9c-0.1,0-0.1,0-0.2,0
			c-0.1,0.4-0.2,0.7-0.4,1.1c-0.7,1.9-1.5,3.7-2.2,5.6c-0.6,1.6-1.2,3.1-1.8,4.8c-0.3,0.8-0.3,0.9,0.6,0.9c2.7,0,5.3,0,7.9,0
			c0.6,0,0.7-0.2,0.5-0.7C22.6,35.7,22.4,35.1,22.2,34.6z"/>
		<path class="st0" d="M49,33c-0.5-1.2-0.9-2.4-1.4-3.5c-0.6-1.6-1.2-3.2-1.9-4.9c-0.2,0.2-0.3,0.4-0.3,0.5
			c-0.6,1.7-1.2,3.2-1.9,4.9c-0.5,1.4-1.1,2.9-1.6,4.2c-0.3,0.8-0.6,1.6-0.9,2.3c-0.1,0.4,0,0.6,0.4,0.6c0.3,0,0.6,0,0.9,0
			c2.5,0,4.9,0,7.4,0c0.4,0,0.7-0.1,0.5-0.6C49.9,35.3,49.5,34.2,49,33z"/>
		<path class="st0" d="M32,0.5C14.6,0.5,0.5,14.6,0.5,32S14.6,63.5,32,63.5S63.5,49.4,63.5,32S49.4,0.5,32,0.5z M16.6,17.6
			c0.2-0.7,0.8-1.2,1.6-1.2c0.4,0,0.7,0.2,1.1,0.2c0.3,0,0.6,0.1,0.9,0c1.2-0.5,2.3-1.1,3.4-1.5c2.1-0.8,4.1-0.7,5.9,0.7
			c0.1,0,0.1,0.1,0.2,0.2c0.4-0.3,0.8-0.6,1.2-0.9c-0.8-0.7-1.1-1.5-0.7-2.4c0.3-0.7,0.7-1.3,1-1.9c0.1-0.1,0.1-0.2,0.2-0.3
			c0.4-0.5,0.9-0.6,1.3,0c0.4,0.5,0.8,1.1,1,1.7c0.4,1,0.7,1.7-0.5,3c0.3,0.3,0.6,0.5,1,0.7c0.1,0.1,0.4,0,0.5-0.1
			c1.4-1.1,3-1.2,4.5-1c1,0.2,2,0.7,3,1.1c0.6,0.3,1.2,0.6,1.9,0.9c0.2,0.1,0.6,0.1,0.8,0c0.7-0.4,1.4-0.4,2,0.1
			c0.7,0.5,0.8,1.2,0.6,1.9c-0.2,0.7-0.7,1.2-1.5,1.2c-0.5,0-1.2-0.1-1.4-0.5c-0.6-1-1.6-1.2-2.5-1.6c-0.9-0.5-1.9-0.9-2.9-1.2
			c-1.4-0.4-2.9-0.3-3.9,0.8c-0.3,0.3-0.3,0.8-0.4,1.2c-0.1,2.1-2.7,3.3-4.5,2.3c-0.9-0.5-1.4-1.3-1.5-2.3c-0.1-1.2-1.1-2-2.3-2.1
			c-1.5-0.2-2.8,0.3-4.1,0.9c-0.5,0.3-1,0.5-1.6,0.8c-0.6,0.3-1.2,0.6-1.6,1.2c-0.4,0.6-1.4,0.7-2.1,0.3
			C16.8,19.3,16.4,18.4,16.6,17.6z M10.2,38.1C10,37.6,10.3,37,10.9,37c0.1,0,0.1,0,0.2,0c0.5,0,0.7-0.2,0.8-0.6
			c0.5-1.2,5.1-13.6,5.5-14.6c0.2-0.4,0.4-0.8,0.9-0.7c0.5,0,0.7,0.3,0.9,0.7c0.9,2.4,5.4,14.3,5.5,14.6c0.2,0.4,0.4,0.7,1,0.6l0,0
			c0.6-0.1,1,0.5,0.8,1.1c-1.3,2.7-4.1,4.7-7.2,4.9C14.9,43.4,11.7,41,10.2,38.1z M41.1,54.1c-3.1,0-6,0-9.1,0c-3.2,0-6.4,0-9.5,0
			c-0.5,0-0.8-0.2-0.7-0.7c0-0.6,0.1-1.2,0.2-1.8c0.1-0.6,0.9-1.1,1.7-1.1c0.8,0,1.7,0,2.5,0c0.9,0,0.8,0.2,1-0.8
			c0.3-1.4,1-2.6,2.3-3.2c1-0.5,1.1-1.2,1.1-2.1c0-6,0-11.9,0-17.9c0-0.5-0.2-0.7-0.5-1.1c-0.4-0.5-0.7-1.1-1-1.7
			c-0.2-0.5,0-0.7,0.6-0.7c1.8,0,3.4,0,5.2,0c0.6,0,0.8,0.3,0.6,0.8c-0.2,0.7-0.6,1.3-1.2,1.8c-0.2,0.1-0.3,0.4-0.3,0.7
			c0,6.4,0,12.8,0,19.2c0,0.2,0.2,0.5,0.4,0.6c1.6,0.8,2.7,2.1,3,3.8c0.1,0.5,0.3,0.8,0.9,0.7c0.8-0.1,1.5,0,2.3,0
			c1.7,0,2,0.8,2.2,2.1v0.1C42.4,54.1,42.3,54.1,41.1,54.1z M46.8,43c-4.6,0.4-7.8-2.4-9.1-4.9c-0.3-0.5,0.2-1.2,0.8-1.1l0,0
			c0.5,0.1,0.8-0.2,1-0.6c0.8-2.1,1.6-4.1,2.4-6.3c0.5-1.4,1.1-2.8,1.6-4.1s1.1-2.8,1.6-4.1c0.2-0.5,0.4-0.7,0.9-0.8
			c0.5,0,0.7,0.2,0.9,0.6c0.8,2.1,1.6,4.1,2.4,6.2c0.5,1.4,1.1,2.8,1.6,4.1c0.5,1.4,1.1,2.9,1.6,4.2c0.1,0.4,0.3,0.7,0.8,0.6
			c0.1,0,0.2,0,0.2,0c0.6,0,0.9,0.6,0.7,1.1C52.6,40.7,49.7,42.8,46.8,43z"/>
	</g>
</g>
</svg>
