<?xml version="1.0" encoding="utf-8"?>
<!-- Generator: Adobe Illustrator 20.1.0, SVG Export Plug-In . SVG Version: 6.00 Build 0)  -->
<svg version="1.1" id="Layer_1" xmlns="http://www.w3.org/2000/svg" xmlns:xlink="http://www.w3.org/1999/xlink" x="0px" y="0px"
	 viewBox="0 0 64 64" style="enable-background:new 0 0 64 64;" xml:space="preserve">
<style type="text/css">
	.st0{fill:#EB6526;}
	.st1{fill-rule:evenodd;clip-rule:evenodd;fill:#FFFFFF;}
</style>
<g id="Layer_25">
	<circle class="st0" cx="32" cy="32" r="31.5"/>
</g>
<g>
	<path class="st1" d="M23.9,20.5c-1.9-0.8-3.6-1.8-5.1-3.1c-3.8,3.5-6.2,8.4-6.4,13.9h9.1C21.6,27.4,22.4,23.8,23.9,20.5L23.9,20.5z
		 M41.1,32.7h-8.4v9.2c2.1,0,4.2,0.4,6.1,1.1C40.2,39.8,41,36.4,41.1,32.7L41.1,32.7z M21.5,32.7h-9.1c0.2,5.6,2.7,10.6,6.6,14.1
		c1.5-1.3,3.2-2.3,5-3.1C22.4,40.3,21.6,36.6,21.5,32.7L21.5,32.7z M29.3,12.4c-3.5,0.5-6.8,1.9-9.4,4c1.4,1.1,3,2,4.7,2.7
		C25.8,16.7,27.4,14.4,29.3,12.4L29.3,12.4z M38.7,21c-1.9,0.6-3.9,1-6,1.1v9.2h8.4C41,27.6,40.2,24.1,38.7,21L38.7,21z M32.7,12.6
		v8.1c1.9-0.1,3.7-0.4,5.4-1C36.7,17,34.9,14.6,32.7,12.6L32.7,12.6z M42.5,31.3h9.1c-0.2-5.5-2.6-10.5-6.4-13.9
		c-1.6,1.3-3.3,2.3-5.2,3.1C41.6,23.8,42.4,27.4,42.5,31.3L42.5,31.3z M44.1,16.4c-2.7-2.1-6-3.6-9.6-4c2,2,3.6,4.3,4.9,6.8
		C41.1,18.5,42.7,17.6,44.1,16.4L44.1,16.4z M25.8,19.7c1.7,0.6,3.6,0.9,5.5,1v-8.2C29.1,14.5,27.2,17,25.8,19.7L25.8,19.7z
		 M32.7,43.3v8.1c2.2-2.1,4-4.5,5.4-7.2C36.4,43.7,34.6,43.4,32.7,43.3L32.7,43.3z M34.5,51.6c3.6-0.5,6.9-1.9,9.6-4.1
		c-1.4-1.1-3-2.1-4.7-2.8C38.2,47.3,36.5,49.6,34.5,51.6L34.5,51.6z M40.1,43.5c1.9,0.8,3.6,1.8,5.2,3.1c3.8-3.5,6.2-8.4,6.4-13.9
		h-9.1C42.4,36.5,41.6,40.2,40.1,43.5L40.1,43.5z M25.3,43.1c1.9-0.7,3.9-1.1,6-1.2v-9.2h-8.4C23,36.4,23.8,39.9,25.3,43.1
		L25.3,43.1z M31.3,51.6v-8.2c-1.9,0.1-3.7,0.5-5.4,1.1C27.3,47.1,29.1,49.5,31.3,51.6L31.3,51.6z M20.1,47.7c2.6,2,5.8,3.4,9.2,3.9
		c-1.9-2-3.5-4.2-4.7-6.6C23,45.7,21.4,46.6,20.1,47.7L20.1,47.7z M22.9,31.3h8.4v-9.2c-2.1-0.1-4.2-0.5-6.1-1.1
		C23.8,24.1,23,27.6,22.9,31.3L22.9,31.3z M22.9,31.3"/>
</g>
</svg>
