<?xml version="1.0" encoding="utf-8"?>
<!-- Generator: Adobe Illustrator 20.1.0, SVG Export Plug-In . SVG Version: 6.00 Build 0)  -->
<svg version="1.1" id="Layer_1" xmlns="http://www.w3.org/2000/svg" xmlns:xlink="http://www.w3.org/1999/xlink" x="0px" y="0px"
	 viewBox="0 0 64 64" style="enable-background:new 0 0 64 64;" xml:space="preserve">
<style type="text/css">
	.st0{fill:#957ADB;}
	.st1{fill:#FFFFFF;stroke:#FFFFFF;stroke-width:0.9843;stroke-linecap:round;stroke-linejoin:round;stroke-miterlimit:10;}
	.st2{fill:none;stroke:#FFFFFF;stroke-width:0.9843;stroke-linecap:round;stroke-linejoin:round;stroke-miterlimit:10;}
</style>
<g id="Layer_6">
	<path class="st0" d="M0.5,31.7c-0.2,17.6,14.2,32,31.8,31.8c16.8-0.1,31.1-14.4,31.2-31.2C63.7,14.7,49.3,0.4,31.7,0.5
		C14.9,0.6,0.6,14.9,0.5,31.7z"/>
	<g>
		<path class="st1" d="M26.9,43.7c-0.4-0.1-0.7-0.2-1.1-0.3c-0.2,0-0.4,0-0.5,0.1c-0.1-0.2-0.4-0.3-0.6-0.5l-0.1-0.1
			c-0.1-0.1-0.1-0.2-0.2-0.3c0-0.1-0.1-0.2,0-0.3c0-0.1,0-0.3-0.1-0.4c-0.3-0.3-0.1-0.6,0.1-0.8c0.8-0.9,1.1-2,1.1-3.1
			c0-0.4,0.1-0.8,0-1.2c0,0,0-0.1,0.1-0.1c0.4-0.6,0.3-1.3,0.3-2c0-0.4-0.1-0.8-0.2-1.2c-0.1-0.5-0.2-0.5-0.7-0.5
			c-0.6,0-1.1-0.2-1.7-0.3c-0.6-0.1-1.2-0.2-1.8-0.2c-0.5,0-0.9,0.1-1.3,0.4c-0.1,0.1-0.2,0.1-0.3,0.1c-0.9,0.2-1.4,0.7-1.5,1.6
			c-0.1,0.6,0,1.2,0.5,1.7c0.1,0.1,0.1,0.1,0.1,0.2c0,0.5,0,1.1,0,1.6c0,1.1,0.3,2.1,1,3c0.2,0.2,0.4,0.6,0.2,0.9
			c0,0.1-0.1,0.1-0.1,0.2c0,0.5-0.2,0.9-0.7,1.2c-0.1,0-0.1,0-0.2,0.2l0,0l0,0c-0.2-0.1-0.5-0.1-0.7,0c-0.4,0.1-0.9,0.2-1.3,0.3
			c-0.9,0.3-1.3,1-1.5,2c0,0.2,0,0.5,0,0.7c0,0.4,0.3,0.7,0.7,0.7h0.1c3.7,0,7.5,0,11.2,0c0.3,0,0.5,0,0.7-0.2
			c0.1-0.1,0.2-0.2,0.2-0.4C28.9,45.2,28.5,44,26.9,43.7z"/>
		<path class="st2" d="M26.8,21.7c-0.4,0.1-0.7,0.4-1.1,0.7c-1.7,1.3-2.9,3-3.4,5c-0.4,1.2-0.5,2.4-0.5,3.6"/>
		<path class="st2" d="M37.7,21.8c1.4,1,2.6,2.2,3.3,3.6c0.6,1,0.9,2,1.1,3.1c0.2,0.8,0.2,1.6,0.2,2.4"/>
		<g>
			<path class="st1" d="M35.2,16c-0.8-0.1-1.6-0.2-2.4-0.4c-0.7-0.2-1.4-0.3-2.1-0.1c-0.3,0.1-0.5,0.2-0.7,0.3
				c-0.1,0.1-0.3,0.1-0.4,0.2c-0.9,0.1-1.3,0.8-1.4,1.5c-0.1,0.5-0.1,1,0.3,1.5c0.1,0.1,0.2,0.2,0.3,0.3H29l0,0
				c-0.1,0.1-0.1,0.2-0.1,0.4c0,0.8-0.1,1.6,0.1,2.4c0.1,0.7,0.4,1.4,0.8,1.9c0.2,0.2,0.2,0.4,0.3,0.7c0.1,0.1,0,0.1,0,0.2
				c-0.1,0.2-0.2,0.5-0.1,0.7c0,0.2-0.1,0.3-0.2,0.4c-0.2,0.2-0.4,0.3-0.6,0.5h-0.1c-0.6-0.1-1.2,0.2-1.8,0.3
				c-0.5,0.1-0.9,0.3-1.2,0.8c-0.3,0.4-0.5,0.9-0.5,1.4c0,0.2,0,0.4,0,0.7c0,0.3,0.2,0.6,0.6,0.6c0.1,0,0.1,0,0.2,0
				c3.8,0,7.6,0,11.4,0c0.5,0,0.8-0.3,0.8-0.8c0-0.4,0-0.8-0.1-1.2c-0.3-0.7-0.8-1.2-1.5-1.4c-0.5-0.1-1-0.4-1.6-0.3
				c-0.4,0-0.5-0.2-0.8-0.3c-0.3-0.2-0.4-0.4-0.4-0.7c0-0.1,0-0.2-0.1-0.3c-0.2-0.4-0.1-0.7,0.2-1c0.4-0.5,0.7-1,0.9-1.7
				c0.1-0.3,0.1-0.6,0.1-0.9c0-0.6,0-1.2,0-1.8c0,0,0-0.1,0.1-0.1c0.2-0.3,0.3-0.6,0.3-1c0-0.7,0-1.4-0.1-2.1c0-0.1-0.1-0.2-0.1-0.3
				"/>
		</g>
		<path class="st2" d="M27.6,39.8c2.2,0.9,4.8,1.3,7.1,0.6c0.2-0.1,0.4-0.1,0.6-0.2c0.4-0.1,0.8-0.3,1.2-0.4"/>
		<path class="st1" d="M25.5,36.8c-1.2-0.4-2.3-0.7-3.4-0.9c-0.6-0.1-1.2-0.1-1.9-0.2c-0.3,0-0.6,0-0.8,0.3
			c-0.1,0.1-0.2,0.2-0.4,0.3"/>
		<path class="st1" d="M34,24.5c-0.4,0-0.7,0.3-1.1,0.4c-0.8,0.3-1.5,0.2-2.2-0.2c-0.2-0.1-0.4-0.2-0.7-0.2"/>
		<path class="st1" d="M24.2,41.7c-0.4,0-0.7,0.2-1,0.3c-0.8,0.3-1.5,0.3-2.2-0.1c-0.2-0.1-0.5-0.2-0.8-0.2"/>
		<g>
			<path class="st1" d="M44.3,43.1c0.1,0,0.1,0.1,0.2,0.1l-0.6-0.7C44,42.8,44.1,43,44.3,43.1z"/>
			<path class="st1" d="M44.6,43.3l0.2,0.2C44.7,43.4,44.6,43.3,44.6,43.3z"/>
			<path class="st1" d="M47.3,44c-0.4-0.3-0.9-0.3-1.4-0.4c-0.2-0.1-0.4-0.1-0.6-0.1c-0.2,0-0.5,0-0.6,0.3c-0.1,0.4-0.5,0.6-0.8,0.7
				l0.1-1.9c0-0.1,0-0.1,0-0.2c0-0.1,0-0.2,0-0.3c-0.3-0.4,0-0.8,0.2-1.1c0.7-0.8,0.9-1.7,0.9-2.8c0-0.5,0-1,0-1.5
				c0-0.1,0-0.1,0.1-0.1c0.2-0.2,0.3-0.5,0.3-0.8c0-0.8,0.1-1.6-0.1-2.3c-0.1-0.5-0.2-0.6-0.7-0.6c-0.6,0-1.3-0.2-1.9-0.3
				c-0.6-0.1-1.2-0.2-1.9-0.2c-0.4,0-0.7,0.1-1,0.4c-0.1,0.1-0.3,0.2-0.5,0.2c-0.8,0.1-1.3,0.8-1.3,1.6c0,0.2,0,0.4,0,0.5
				c0,0.5,0.2,0.9,0.5,1.2v0.1c0,0.1-0.1,0.2-0.1,0.3c0,0.6,0,1.3,0,1.9c0,0.3,0.1,0.7,0.2,1c0.2,0.6,0.4,1.1,0.8,1.6
				c0.2,0.3,0.4,0.6,0.2,0.9c0,0.1-0.1,0.1-0.1,0.2c0,0.1,0,0.2,0,0.3l-0.8,0.9c-0.4-0.1-0.9,0-1.3,0.2c-0.5,0.1-1,0.2-1.5,0.6
				c-0.5,0.5-0.8,1.1-0.8,1.8c0,0.2,0,0.3,0,0.5c0,0.4,0.3,0.7,0.7,0.7c0.1,0,0.1,0,0.2,0c3.7,0,7.5,0,11.2,0c0.6,0,0.9-0.3,0.9-0.9
				C48.3,45.3,48,44.5,47.3,44z"/>
		</g>
	</g>
</g>
</svg>
