<?xml version="1.0" encoding="utf-8"?>
<!-- Generator: Adobe Illustrator 20.1.0, SVG Export Plug-In . SVG Version: 6.00 Build 0)  -->
<svg version="1.1" id="Layer_2" xmlns="http://www.w3.org/2000/svg" xmlns:xlink="http://www.w3.org/1999/xlink" x="0px" y="0px"
	 viewBox="0 0 64 64" style="enable-background:new 0 0 64 64;" xml:space="preserve">
<style type="text/css">
	.st0{fill:#B5D561;}
	.st1{fill:#FFFFFF;}
</style>
<g id="Layer_4">
	<path class="st0" d="M0.5,31.7C0.3,49.3,14.7,63.6,32.3,63.5c16.8-0.1,31.1-14.4,31.2-31.2C63.7,14.7,49.3,0.4,31.7,0.5
		C14.9,0.6,0.6,14.9,0.5,31.7z"/>
	<g>
		<path class="st1" d="M29.2,46.7c0-2.3,0.1-4.5,0-6.9c-0.1-2.4-0.7-4.5-2.9-5.7c-1.7-0.9-2.3-2.1-3.2-3.5c-0.7-1.1-1.2-1-1.6-0.5
			c-0.5,0.6,0.2,1.8,0.5,2.3c0.3,0.6,0.6,1.1,0.8,1.8c0.2,0.5,0.5,1.1,0.3,1.7c-0.1,0.3-0.4,0.5-0.6,0.7c-0.1,0.1-0.3,0.2-0.5,0.1
			c-0.1,0-0.2-0.1-0.3-0.2c-0.7-0.7-1.3-1.6-1.8-2.4c-0.6-1.1-0.6-2.3-0.8-3.4c-0.3-1.2-0.1-2.5-0.4-3.5c-0.2-0.7-0.4-1.6-1.1-1.6
			c-0.5,0-0.9,0.5-0.9,1.2c0,1.9,0,3.6,0,5.5c0,0.8,0.1,1.5,0.5,2.2c0.4,0.7,0.9,1.3,1.3,2c0.5,0.8,0.9,1.6,1.5,2.4
			c0.5,0.8,1.2,1.5,2,1.9c0.4,0.2,0.9,0.3,1.3,0.5c0.9,0.5,1.1,1.4,1.1,2.3c0,1.2,0,2.4,0,3.4"/>
		<path class="st1" d="M34.8,46.7c0-2.3-0.1-4.5,0-6.9c0.1-2.4,0.7-4.5,2.9-5.7c1.7-0.9,2.3-2.1,3.2-3.5c0.7-1.1,1.2-0.8,1.6-0.3
			c0.5,0.7-0.5,2.1-0.8,2.7c-0.3,0.4-0.4,0.9-0.5,1.4c-0.2,0.7-0.6,1.3,0.1,1.9c0.1,0.1,0.2,0.1,0.3,0.1c0.1,0,0.2,0,0.3,0
			c0.6-0.2,1.1-0.6,1.5-1c0.5-0.6,0.9-1.4,1.1-2.2c0.3-0.9,0.3-1.8,0.5-2.6c0.3-1.2,0.4-2.5,0.6-3.5c0.2-0.7,0.1-1.7,0.7-1.7
			c0.7,0,1,0.5,1,1.3c0,1.9,0,3.6,0,5.5c0,0.8-0.1,1.5-0.5,2.2c-0.4,0.7-1.1,1.7-1.6,2.4c-0.5,0.8-0.7,1.2-1.2,2s-1.2,1.5-2,1.9
			c-0.4,0.2-0.9,0.3-1.3,0.5c-0.9,0.5-1.1,1.4-1.1,2.3c0,1.2,0,2.4,0,3.4"/>
		<path class="st1" d="M32.1,19.9c-0.4-0.2-0.6-0.5-0.9-0.9c-1.2-1.7-3.1-2.3-4.9-1.7c-2,0.6-3.1,2.4-3.2,4.3
			c-0.1,2.4,1.1,4.1,2.6,5.7c1.7,1.9,3.7,3.2,5.7,5c0.4,0.4,1.1,0.4,1.5,0c0.9-0.7,1.8-1.5,2.7-2.2c2-1.6,3.9-3.1,5.1-5.5
			c2.1-3.9-0.6-7.3-3.3-7.7c-1.4-0.2-2.5,0.2-3.4,1.1c-0.5,0.4-0.9,1-1.4,1.5"/>
		<path class="st1" d="M34.7,46.7"/>
	</g>
</g>
</svg>
