<?xml version="1.0" encoding="utf-8"?>
<!-- Generator: Adobe Illustrator 20.1.0, SVG Export Plug-In . SVG Version: 6.00 Build 0)  -->
<svg version="1.1" id="Layer_2" xmlns="http://www.w3.org/2000/svg" xmlns:xlink="http://www.w3.org/1999/xlink" x="0px" y="0px"
	 viewBox="0 0 64 64" style="enable-background:new 0 0 64 64;" xml:space="preserve">
<style type="text/css">
	.st0{fill:#3AADD8;}
</style>
<g id="Layer_8">
	<path class="st0" d="M32,0.5C14.6,0.5,0.5,14.6,0.5,32S14.6,63.5,32,63.5S63.5,49.4,63.5,32S49.4,0.5,32,0.5z M43.8,40.7
		c-1.5,1.1-3.2,1.6-5,2c-2.6,0.6-5.1,0.8-7.7,0.7c-1.9,0-3.7-0.2-5.6-0.6c-1.5-0.3-3-0.7-4.3-1.5c-0.7-0.4-1.3-0.9-2-1.4
		c-0.1-0.1-0.1-0.3,0-0.4c1.4-1.6,0.8-4.1-0.7-4.9c-0.1,0-0.2-0.1-0.2-0.2c0-0.6,0-1.1,0.1-1.7c0.1-0.4,0.5-0.6,0.8-0.5
		c2.3,0.8,8.9,3,11.5,3.8c0.7,0.2,1.4,0.2,2.1,0c3.3-1.1,9.5-3.2,11.8-3.9c0.4-0.1,0.8,0.2,0.8,0.6c0,1.2,0,3.4,0,4.6
		C45.6,39,44.9,39.9,43.8,40.7z M53.1,26.9c-0.1,0.2-0.4,0.4-0.6,0.4C49.4,28.4,36,32.8,32.4,34c-0.4,0.1-0.7,0.1-1.1,0
		c-3.5-1.2-10.6-3.5-10.8-3.6c0.8-0.3,10.8-4.2,11.5-4.4c0.5-0.2,0.8-0.5,0.8-1c0-0.7-0.7-1.2-1.4-1c-1.2,0.4-8.9,3.3-11.5,4.4
		c-0.7,0.3-1.4,0.7-2,1.1c-1,0.7-1.5,1.8-1.7,3c-0.2,0.7-0.2,1.4-0.3,2c0,0.2,0,0.3,0.2,0.4c1.2,0.9,1.2,2.4,0.1,3.4
		c-0.1,0.1-0.1,0.3-0.1,0.4c0.2,1.7,0.4,3.4,0.3,5.1c-0.1,1.8-0.8,3.2-2.3,4.3c-0.5,0.4-1.1,0.6-1.8,0.2c-0.8-0.4-1.6-0.8-2.4-1.3
		c-0.4-0.2-0.4-0.3-0.1-0.6c1-1,1.9-2,2.5-3.2c0.8-1.4,1.2-2.9,1.4-4.4c0-0.1-0.1-0.3-0.2-0.3c-1.4-0.9-1.5-2.9-0.1-3.7
		c0.2-0.1,0.3-0.3,0.3-0.5c0.1-1.3,0.3-2.6,0.8-3.7c0.3-0.6,0.6-1.2,1-1.8c-0.3-0.1-3.2-1.1-4.4-1.5c-0.5-0.2-0.8-0.5-0.7-0.9
		c0-0.4,0.3-0.7,0.8-0.9c5.4-1.8,18.7-6.2,20-6.7c0.4-0.1,0.7-0.1,1.1,0c6.7,2.3,13.3,4.4,20,6.7C53.2,25.8,53.5,26.4,53.1,26.9z"/>
</g>
</svg>
