<?xml version="1.0" encoding="utf-8"?>
<!-- Generator: Adobe Illustrator 20.1.0, SVG Export Plug-In . SVG Version: 6.00 Build 0)  -->
<svg version="1.1" id="Layer_2" xmlns="http://www.w3.org/2000/svg" xmlns:xlink="http://www.w3.org/1999/xlink" x="0px" y="0px"
	 viewBox="0 0 64 64" style="enable-background:new 0 0 64 64;" xml:space="preserve">
<style type="text/css">
	.st0{fill:#FD4C48;}
	.st1{fill:#FFFFFF;}
	.st2{fill:none;stroke:#FD4C48;stroke-width:0.9844;stroke-miterlimit:10;}
</style>
<g id="Layer_2_1_">
	<circle class="st0" cx="32" cy="32" r="31.5"/>
	<g>
		<path class="st1" d="M33.6,46l12-11.1c4.1-3.8,3.7-10.5-0.9-13.8l0,0C41.8,19,38,19,35.1,21l-1.8,1.3c-0.8,0.6-1.9,0.6-2.7,0
			L28.9,21c-3-2.1-6.8-2-9.6,0.1l-0.3,0.2c-4.5,3.3-4.8,10-0.6,13.9L30.4,46C31.3,46.8,32.7,46.8,33.6,46z"/>
	</g>
	<path class="st2" d="M15.5,35.2h7.9c1.2,0,2.3-0.6,2.9-1.7l0,0c0.2-0.4,0.7-0.4,1-0.1l0.3,0.4c0.7,0.8,1.9,0.5,2.2-0.5l1.6-5.2
		l2.1,12.2l1.4-4.4c0.1-0.4,0.5-0.7,1-0.7l0,0c0.8,0,1.6-0.5,1.9-1.2l0.7-1.5l0.9,1.2c0.7,1,1.9,1.6,3.1,1.6h6"/>
</g>
</svg>
