<?xml version="1.0" encoding="utf-8"?>
<!-- Generator: Adobe Illustrator 20.1.0, SVG Export Plug-In . SVG Version: 6.00 Build 0)  -->
<svg version="1.1" id="Layer_2" xmlns="http://www.w3.org/2000/svg" xmlns:xlink="http://www.w3.org/1999/xlink" x="0px" y="0px"
	 viewBox="0 0 64 64" style="enable-background:new 0 0 64 64;" xml:space="preserve">
<style type="text/css">
	.st0{fill:#FFCE54;}
	.st1{fill:#FFFFFF;}
	.st2{fill:#FFFFFF;stroke:#FFCE54;stroke-width:0.9844;stroke-miterlimit:10;}
</style>
<g id="Layer_27">
	<circle class="st0" cx="32" cy="32" r="31.5"/>
	<path class="st1" d="M25.5,21.4c-0.1,0-0.2,0-0.2-0.1c-0.1,0-0.2,0-0.2-0.1c-8.8-2.3-9.2-0.5-9.2-0.5l-2.7,10.2
		c-1.5,5.6,1.3,11.2,6.1,12.5c0.1,0,0.2,0,0.2,0.1c0.1,0,0.2,0,0.2,0.1c4.8,1.3,9.9-2.3,11.4-8l2.7-10.2
		C33.9,25.4,34.4,23.6,25.5,21.4z M16.8,29.2c-0.1-0.2-0.1-0.4,0.1-0.5l4.1-2.5c0.2-0.1,0.4,0,0.5,0.1c0.5,1.3,0.1,2.8-1.2,3.4
		C19.2,30.6,17.6,30.3,16.8,29.2z M25.6,38.9c-0.8-0.5-1.5-0.7-2.2-0.9l-1.1-0.3l-1.1-0.3c-0.1,0-0.1,0-0.2,0c-0.1,0-0.1,0-0.2-0.1
		L19.8,37l-1.1-0.2c-0.7-0.1-1.4-0.3-2.4-0.3c-0.2,0-0.3-0.2-0.2-0.3c0.5-1.1,1.4-2,2.4-2.4c0.6-0.3,1.1-0.4,1.7-0.4
		c0.3,0,0.6,0,0.9,0c0.3,0,0.6,0.1,0.8,0.1c0.1,0,0.2,0,0.3,0.1c0.1,0,0.2,0,0.3,0.1c0.2,0.1,0.4,0.1,0.7,0.3
		c0.3,0.1,0.5,0.2,0.8,0.4c0.5,0.3,0.9,0.7,1.3,1.2c0.7,0.9,1.1,2,0.9,3.2C26,38.9,25.8,39,25.6,38.9z M28.9,32.4
		c-1.3,0.5-2.8,0.1-3.4-1.2c-0.7-1.2-0.4-2.8,0.7-3.5c0.2-0.1,0.4-0.1,0.5,0.1l2.5,4.1C29,32,29,32.3,28.9,32.4z"/>
	<path class="st2" d="M40.2,24.9c-4.4,1.1-7.1,1.1-8.5,0.8c-0.7-0.1-1.2,0.5-1.1,1.2l2.3,9.5c1.5,6.1,6.9,10,12.2,8.8
		c5.2-1.3,8.3-7.3,6.8-13.4l-2.3-9.5c-0.2-0.7-0.9-0.9-1.5-0.5C47,22.6,44.7,23.8,40.2,24.9z M35.6,34.6c-0.2,0.1-0.4-0.1-0.5-0.3
		c-0.2-1.5,0.8-2.9,2.3-3.2c1.5-0.4,3,0.5,3.4,1.9c0.1,0.2-0.1,0.4-0.3,0.5L35.6,34.6z M48.1,35.5c0.2,1.3-0.4,2.6-1.1,3.4
		c-0.8,1-1.9,1.7-3.1,2c-0.2,0-0.5,0.1-0.8,0.1c-0.3,0-0.6,0-0.9,0c-0.6-0.1-1.2-0.2-1.8-0.5c-1.1-0.5-2.1-1.4-2.6-2.6
		c-0.1-0.2,0.1-0.4,0.3-0.4c1,0,1.8-0.1,2.6-0.2l1.2-0.2l1.2-0.3c0.7-0.2,1.5-0.4,2.3-0.6c0.7-0.2,1.5-0.5,2.4-1
		C47.9,35.2,48.1,35.2,48.1,35.5L48.1,35.5z M48.6,31.4l-5,1.2c-0.2,0.1-0.4-0.1-0.5-0.3c-0.2-1.5,0.8-2.9,2.3-3.2
		c1.5-0.4,3,0.5,3.4,1.9C48.9,31.2,48.8,31.4,48.6,31.4L48.6,31.4z"/>
</g>
</svg>
