<?xml version="1.0" encoding="utf-8"?>
<!-- Generator: Adobe Illustrator 20.1.0, SVG Export Plug-In . SVG Version: 6.00 Build 0)  -->
<svg version="1.1" id="Layer_2" xmlns="http://www.w3.org/2000/svg" xmlns:xlink="http://www.w3.org/1999/xlink" x="0px" y="0px"
	 viewBox="0 0 64 64" style="enable-background:new 0 0 64 64;" xml:space="preserve">
<style type="text/css">
	.st0{fill:#F5991E;}
</style>
<g id="Layer_36">
	<g>
		<path class="st0" d="M30.9,39.1c-0.8,0-1.4,0.6-1.5,1.3c-0.1,0.9,0.5,1.6,1.4,1.7c1,0.1,1.6-0.5,1.6-1.5S31.8,39.1,30.9,39.1z"/>
		<path class="st0" d="M25.7,41.1c-0.7,0.1-1.2,0.5-1.1,1.1c0,0.8,0.6,1.3,1.4,1.2c0.6-0.1,1-0.7,0.9-1.5
			C26.8,41.4,26.4,41,25.7,41.1z"/>
		<path class="st0" d="M26.6,34.5c-1.4,0.1-2.1,1.1-2.2,2.3c0,0.9,0.4,1.6,1,2c0.8,0.5,1.8,0.5,2.6,0c0.7-0.4,1.1-1.1,1-2
			C28.9,35.3,28.1,34.4,26.6,34.5z"/>
		<path class="st0" d="M32,0.5C14.6,0.5,0.5,14.6,0.5,32S14.6,63.5,32,63.5S63.5,49.4,63.5,32S49.4,0.5,32,0.5z M47.2,11.5
			c0.2,0,0.5,0,0.7,0.2c0.5,0.4,0.7,1.3,0.1,1.7c-0.7,0.5-1.6-0.1-1.6-0.8C46.4,12,46.7,11.6,47.2,11.5z M42.3,12.9
			c0.9-0.1,2,0.8,1.7,1.7c-0.3,1-1.6,0.7-2.2,0.2c-0.3-0.3-0.5-0.6-0.5-1C41.5,13.3,41.9,13,42.3,12.9z M50.6,26.6
			c-0.1,0.4-0.3,0.8-0.7,1c-0.9,0.6-2-0.3-3,0.1c-1.2,0.5-2.1,1.7-2.9,2.8c-0.7,1-1.6,2-2,3.2c-0.1,0.3-0.2,0.7-0.2,1.1
			c0.1,3.1,0.3,6-1.5,9c-3.4,5.9-8.9,7.8-14.9,7.1c-7.2-1.4-11.9-6.7-12.3-13.7c-0.3-6.2,3.8-12.2,9.7-14c3.6-1.2,6.4-1.2,7.9-1.1
			c0.8,0.1,1.7-0.3,2.2-0.9c0.6-0.7,1.3-1.4,1.9-2.1c0.7-0.8,1.6-1.6,1.5-2.8c-0.1-1-0.1-2,0.9-2.4c1.4-0.5,2.5,0.3,3.4,1.4
			c1.8,1.7,3.5,1.1,3.8,1c2.2-0.7,3.6,0.7,2.9,2.6c-0.5,1.1-0.2,2.3,0.5,3.3c0.5,0.7,1.1,1.2,1.7,1.9c0.3,0.3,0.5,0.6,0.7,1
			C50.6,25.4,50.7,26,50.6,26.6z"/>
		<path class="st0" d="M42.8,21c-1-0.9-2-2.7-3.9-1.4c-0.3,0.2-5.3,5.4-5.7,5.7c-1.4,1-3-0.7-6.8,0c-5.6,1.1-8.9,4.5-10.2,9.4
			c-1,4.5,1.3,9.2,5.3,11.7c4,2.6,9.8,2.5,13.7-0.5c3.2-2.4,4.4-6,4-10.1c-0.1-0.7-0.2-1.4-0.4-2.1c-0.4-1.3,0.1-2.2,0.9-3.1
			c1-1.1,2-2.1,3.1-3.1C45.8,24.4,46.2,24.1,42.8,21z M31,45.5c-5.2,2.1-10.5-0.7-12.3-6.2c-1.4-3.9-0.7-5,4-6.2
			c3.2-0.9,6.3-1.5,9.4-2.4c2.1-0.6,3.2,0.3,4.1,2.2C38.5,37.9,36.2,43.5,31,45.5z"/>
	</g>
</g>
</svg>
