<?xml version="1.0" encoding="utf-8"?>
<!-- Generator: Adobe Illustrator 20.1.0, SVG Export Plug-In . SVG Version: 6.00 Build 0)  -->
<svg version="1.1" id="Layer_1" xmlns="http://www.w3.org/2000/svg" xmlns:xlink="http://www.w3.org/1999/xlink" x="0px" y="0px"
	 viewBox="0 0 53 54" style="enable-background:new 0 0 53 54;" xml:space="preserve">
<style type="text/css">
	.st0{fill:#757575;}
	.st1{fill:#FFFFFF;stroke:#FFFFFF;stroke-width:0.25;stroke-miterlimit:10;}
</style>
<title>diagram</title>
<g>
	<g id="Layer_2">
		<g id="интерфейс">
			<image style="overflow:visible;opacity:0.3;enable-background:new    ;" width="53" height="54" xlink:href="../751D2BA6.png" >
			</image>
			<path class="st0" d="M11.2,4.8h30c2.8,0,5,2.2,5,5v30.3c0,2.8-2.2,5-5,5h-30c-2.8,0-5-2.2-5-5V9.8C6.2,7.1,8.4,4.8,11.2,4.8z"/>
		</g>
	</g>
</g>
<path class="st1" d="M29.1,36.6V22h-5.9v14.6H29.1z M36.7,36.6V14.4h-5.9v22.2H36.7z M39.6,39.4h-27l0-27.1h0.9l0.1,26.2l26.1,0
	V39.4z M21.5,36.6V29h-5.9v7.6H21.5z"/>
</svg>
