<?xml version="1.0" encoding="utf-8"?>
<!-- Generator: Adobe Illustrator 20.1.0, SVG Export Plug-In . SVG Version: 6.00 Build 0)  -->
<svg version="1.1" id="Layer_1" xmlns="http://www.w3.org/2000/svg" xmlns:xlink="http://www.w3.org/1999/xlink" x="0px" y="0px"
	 viewBox="0 0 53 54" style="enable-background:new 0 0 53 54;" xml:space="preserve">
<style type="text/css">
	.st0{fill:#FFFFFF;}
	.st1{fill:#757575;stroke:#757575;stroke-width:0.25;stroke-miterlimit:10;}
</style>
<title>diagram_white</title>
<g>
	<image style="overflow:visible;opacity:0.3;enable-background:new    ;" width="53" height="54" xlink:href="../75F50A5.png" >
	</image>
	<path class="st0" d="M11.2,4.8h30c2.8,0,5,2.2,5,5v30.3c0,2.8-2.2,5-5,5h-30c-2.8,0-5-2.2-5-5V9.8C6.2,7.1,8.4,4.8,11.2,4.8z"/>
</g>
<path class="st1" d="M29.6,37.8V23.2h-5.9v14.6H29.6z M37.2,37.8V15.6h-5.9v22.2H37.2z M40,40.5H13l0-27.1h0.9L14,39.7l26.1,0V40.5z
	 M22,37.8v-7.6h-5.9v7.6H22z"/>
</svg>
