<?xml version="1.0" encoding="utf-8"?>
<!-- Generator: Adobe Illustrator 20.1.0, SVG Export Plug-In . SVG Version: 6.00 Build 0)  -->
<svg version="1.1" id="Layer_1" xmlns="http://www.w3.org/2000/svg" xmlns:xlink="http://www.w3.org/1999/xlink" x="0px" y="0px"
	 viewBox="0 0 20 20" style="enable-background:new 0 0 20 20;" xml:space="preserve">
<style type="text/css">
	.st0{fill:#ADADAD;}
	.st1{fill:#FFFFFF;}
	.st2{fill:none;stroke:#FFFFFF;stroke-width:1.5;stroke-miterlimit:10;}
</style>
<title>eye</title>
<g id="Layer_2">
	<g id="интерфейс">
		<circle class="st0" cx="10" cy="10" r="10"/>
		<path class="st1" d="M10,6c3.4,0,5.9,2.8,6.8,4c-0.9,1.2-3.5,4-6.8,4s-5.9-2.8-6.8-4C4.1,8.8,6.7,6,10,6 M10,5c-4.8,0-8,5-8,5
			s3.1,5,8,5c4.8,0,8-5,8-5S14.9,5,10,5z M10,7c-1.7,0-3,1.3-3,3s1.3,3,3,3s3-1.3,3-3S11.7,7,10,7z"/>
	</g>
</g>
<line class="st2" x1="1.8" y1="15.7" x2="18" y2="4"/>
</svg>
