<?xml version="1.0" encoding="utf-8"?>
<!-- Generator: Adobe Illustrator 20.1.0, SVG Export Plug-In . SVG Version: 6.00 Build 0)  -->
<svg version="1.1" id="Layer_1" xmlns="http://www.w3.org/2000/svg" xmlns:xlink="http://www.w3.org/1999/xlink" x="0px" y="0px"
	 viewBox="0 0 30 30" style="enable-background:new 0 0 30 30;" xml:space="preserve">
<style type="text/css">
	.st0{fill:#747474;}
	.st1{fill:#FFFFFF;}
</style>
<title>Asset 19</title>
<g id="Layer_2">
	<g id="вып._разделы">
		<path class="st0" d="M5,0h20c2.8,0,5,2.2,5,5v20c0,2.8-2.2,5-5,5H5c-2.8,0-5-2.2-5-5V5C0,2.2,2.2,0,5,0z"/>
		<path class="st1" d="M20.3,9.7l-5,10l-0.8-2.8l-0.3-1.1l-1.1-0.3l-2.8-0.8L20.3,9.7 M22.6,6.4c-0.1,0-0.3,0-0.4,0.1L6.9,14.1
			c-0.5,0.3-0.6,0.9-0.3,1.4c0.1,0.2,0.3,0.3,0.5,0.4l5.4,1.5l1.5,5.4c0.2,0.5,0.8,0.8,1.3,0.6c0.2-0.1,0.4-0.2,0.5-0.4l7.6-15.3
			c0.2-0.5,0-1.1-0.5-1.3C22.8,6.5,22.7,6.4,22.6,6.4L22.6,6.4z"/>
	</g>
</g>
</svg>
