<?xml version="1.0" encoding="utf-8"?>
<!-- Generator: Adobe Illustrator 21.0.2, SVG Export Plug-In . SVG Version: 6.00 Build 0)  -->
<svg version="1.1"
	 id="svg2" xmlns:cc="http://creativecommons.org/ns#" xmlns:dc="http://purl.org/dc/elements/1.1/" xmlns:rdf="http://www.w3.org/1999/02/22-rdf-syntax-ns#" xmlns:svg="http://www.w3.org/2000/svg"
	 xmlns="http://www.w3.org/2000/svg" xmlns:xlink="http://www.w3.org/1999/xlink" x="0px" y="0px" viewBox="0 0 132 132"
	 style="enable-background:new 0 0 132 132;" xml:space="preserve">
<style type="text/css">
	.st0{clip-path:url(#SVGID_2_);}
	.st1{clip-path:url(#SVGID_4_);}
	.st2{fill:#F59904;}
</style>
<g>
	<g>
		<g id="g10" transform="matrix(1.3333333,0,0,-1.3333333,0,132)">
			<defs>
				<rect id="SVGID_1_" x="-58" y="-58" width="215" height="215"/>
			</defs>
			<clipPath id="SVGID_2_">
				<use xlink:href="#SVGID_1_"  style="overflow:visible;"/>
			</clipPath>
			<g id="g12" class="st0">
				<g id="g14">
					<g id="g22">
					</g>
					<g id="g20">
						<g id="g98">
							<defs>
								<rect id="SVGID_3_" x="-58" y="-58" width="215" height="215"/>
							</defs>
							<clipPath id="SVGID_4_">
								<use xlink:href="#SVGID_3_"  style="overflow:visible;"/>
							</clipPath>
							<g id="g96" class="st1">
								<g id="g38" transform="translate(26.7864,71.2696)">
									<path id="path36" class="st2" d="M-14.3,13.7c0-1.3,1.1-2.4,2.4-2.4s2.4,1.1,2.4,2.4s-1.1,2.4-2.4,2.4S-14.3,15-14.3,13.7
										 M-11.8,19.3c3.1,0,5.7-2.6,5.7-5.7s-2.5-5.7-5.7-5.7c-3.1,0-5.7,2.6-5.7,5.7S-15,19.3-11.8,19.3"/>
								</g>
								<g id="g42" transform="translate(69.4786,71.2696)">
									<path id="path40" class="st2" d="M12.6,13.7c0-1.3,1.1-2.4,2.4-2.4s2.4,1.1,2.4,2.4s-1.1,2.4-2.4,2.4S12.6,15,12.6,13.7
										 M15,19.3c3.1,0,5.7-2.6,5.7-5.7S18.1,7.9,15,7.9c-3.1,0-5.7,2.6-5.7,5.7S11.9,19.3,15,19.3"/>
								</g>
								<g id="g46" transform="translate(69.4786,28.8294)">
									<path id="path44" class="st2" d="M12.6-13c0-1.3,1.1-2.4,2.4-2.4s2.4,1.1,2.4,2.4s-1.1,2.4-2.4,2.4S12.6-11.7,12.6-13
										 M15-7.4c3.1,0,5.7-2.6,5.7-5.7s-2.5-5.7-5.7-5.7c-3.1,0-5.7,2.6-5.7,5.7S11.9-7.4,15-7.4"/>
								</g>
								<g id="g50" transform="translate(26.0725,28.8294)">
									<path id="path48" class="st2" d="M-14.7-13c0-1.3,1.1-2.4,2.4-2.4S-10-14.3-10-13s-1.1,2.4-2.4,2.4S-14.7-11.7-14.7-13
										 M-12.3-7.4c3.1,0,5.7-2.6,5.7-5.7s-2.5-5.7-5.7-5.7c-3.1,0-5.7,2.6-5.7,5.7S-15.4-7.4-12.3-7.4"/>
								</g>
								<path id="path52" class="st2" d="M82,82.5H18.8v3.2H82V82.5z"/>
								<path id="path54" class="st2" d="M82,13.3H18.8v3.2H82V13.3z"/>
								<path id="path56" class="st2" d="M14.1,81.7h3.2V18.5h-3.2V81.7z"/>
								<path id="path58" class="st2" d="M82,81.7h3.2V18.5H82L82,81.7z"/>
								<g id="g62" transform="translate(41.0093,70.2409)">
									<path id="path60" class="st2" d="M-5.3,13L-25.3-6.9l0,4.5L-9.9,13L-5.3,13z"/>
								</g>
								<g id="g66" transform="translate(49.1713,70.7677)">
									<path id="path64" class="st2" d="M-0.2,13.4l-32.7-32.7l0,4.5l28.2,28.2L-0.2,13.4z"/>
								</g>
								<g id="g70" transform="translate(56.0719,70.1481)">
									<path id="path68" class="st2" d="M4.1,13l-43.5-43.5l0,4.5L-0.4,13L4.1,13z"/>
								</g>
								<g id="g74" transform="translate(63.4169,70.1481)">
									<path id="path72" class="st2" d="M8.8,13l-55.3-55.3l0,4.5L4.2,13L8.8,13z"/>
								</g>
								<g id="g78" transform="translate(69.6192,68.8239)">
									<path id="path76" class="st2" d="M12.7,12.2l-63.6-63.6l-2.2,2.3l63.5,63.5L12.7,12.2z"/>
								</g>
								<g id="g82" transform="translate(33.7553,28.2183)">
									<path id="path80" class="st2" d="M-9.9-13.4l59.8,59.8l0-4.5L-5.4-13.4L-9.9-13.4z"/>
								</g>
								<g id="g86" transform="translate(42.5351,28.8872)">
									<path id="path84" class="st2" d="M-4.4-13l45.5,45.5l0-4.5l-41-41L-4.4-13z"/>
								</g>
								<g id="g90" transform="translate(49.5779,28.18)">
									<path id="path88" class="st2" d="M0-13.4l33.5,33.5l0-4.5L4.6-13.4L0-13.4z"/>
								</g>
								<g id="g94" transform="translate(57.423,28.18)">
									<path id="path92" class="st2" d="M5-13.4L26,7.7l0-4.5L9.5-13.4L5-13.4z"/>
								</g>
							</g>
						</g>
					</g>
				</g>
			</g>
		</g>
	</g>
</g>
</svg>
