<?xml version="1.0" encoding="utf-8"?>
<!-- Generator: Adobe Illustrator 21.0.2, SVG Export Plug-In . SVG Version: 6.00 Build 0)  -->
<svg version="1.1" id="Слой_1" xmlns="http://www.w3.org/2000/svg" xmlns:xlink="http://www.w3.org/1999/xlink" x="0px" y="0px"
	 viewBox="0 0 393.5 93.9" style="enable-background:new 0 0 393.5 93.9;" xml:space="preserve">
<style type="text/css">
	.st0{fill:#FFFFFF;}
	.st1{fill:#6DCFF6;}
	.st2{fill:#FFED00;}
</style>
<title>logo_OD</title>
<g id="Layer_2">
	<g id="Layer_1-2">
		<g id="Layer_2-2">
			<path class="st0" d="M19.7,66.6l-12,9.9c-0.9,0.8-1.1,2.2-0.3,3.1l0.1,0.1c1.6,1.8,3.4,3.5,5.3,5c0.9,0.8,2.4,0.7,3.1-0.3
				c0,0,0,0,0,0l0.1-0.1l9.4-12.4c0.7-0.9,0.6-2.2-0.3-3c-0.8-0.7-1.6-1.4-2.3-2.2C21.9,65.9,20.6,65.8,19.7,66.6z"/>
			<path class="st0" d="M123.6,25v40c0,1.2,1,2.2,2.2,2.2l0,0h31.1c1.2,0,2.2-1,2.2-2.2v-4.5c0-1.2-1-2.2-2.2-2.2l0,0h-24V31.7h24
				c1.2,0,2.2-1,2.2-2.2l0,0l0,0V25c0-1.2-1-2.2-2.2-2.2l0,0h-31.1C124.6,22.8,123.6,23.8,123.6,25z"/>
			<path class="st0" d="M140.1,40.5h12.8c1.2,0,2.2,1,2.2,2.2v4.4c0,1.2-1,2.2-2.2,2.2h-12.8c-1.2,0-2.2-1-2.2-2.2v-4.4
				C137.9,41.5,138.9,40.5,140.1,40.5z"/>
			<path class="st0" d="M198.6,52.8l-18.9-29c-0.4-0.6-1.1-1-1.9-1h-7.7c-1.2,0-2.2,1-2.2,2.2v40c0,1.2,1,2.2,2.2,2.2l0,0h4.8
				c1.2,0,2.2-0.9,2.3-2.2c0,0,0,0,0,0V37.1l18.9,29c0.4,0.6,1.1,1,1.9,1h7.7c1.2,0,2.2-0.9,2.3-2.1V25c0-1.2-1-2.2-2.2-2.2l0,0
				h-4.9c-1.2,0-2.2,1-2.2,2.2V52.8z"/>
			<path class="st0" d="M276.1,24.2l-16,39.9c-0.4,1.1,0.2,2.4,1.3,2.9c0.2,0.1,0.5,0.1,0.8,0.1h5.4c0.9,0,1.7-0.5,2.1-1.4
				l13.6-34.1l7.1,17.8h-8.1c-1.2,0-2.2,1-2.2,2.2c0,0,0,0,0,0l0,0V56c0,1.2,1,2.2,2.2,2.2l0,0H294l3,7.5c0.3,0.8,1.1,1.4,2,1.4h5.4
				c1.2,0,2.2-1,2.2-2.2c0-0.3-0.1-0.5-0.1-0.8l-16-39.9c-0.3-0.8-1.2-1.4-2.1-1.4h-10.2C277.3,22.8,276.5,23.3,276.1,24.2z"/>
			<path class="st0" d="M355,24.2l-16,39.9c-0.4,1.1,0.2,2.4,1.3,2.9c0.2,0.1,0.5,0.1,0.8,0.1h5.4c0.9,0,1.7-0.5,2.1-1.4l13.6-34.1
				l7.1,17.8h-8.1c-1.2,0-2.2,1-2.2,2.2c0,0,0,0,0,0v4.5c0,1.2,1,2.2,2.2,2.2l0,0h11.6l3,7.5c0.3,0.8,1.2,1.4,2.1,1.4h5.4
				c1.2,0,2.2-1,2.2-2.2c0-0.3-0.1-0.5-0.1-0.8l-16-39.9c-0.3-0.8-1.2-1.4-2.1-1.4H357C356.1,22.9,355.3,23.4,355,24.2z"/>
			<path class="st0" d="M97.8,22.8H78.2c-1.2,0-2.2,1-2.2,2.2v40c0,1.2,1,2.2,2.2,2.2l0,0h4.9c1.2,0,2.2-1,2.2-2.2l0,0V31.7H98
				c4.8,0,8.8,3.8,9,8.6c0.2,4.9-3.7,9-8.6,9.2h-5.9c-1.2,0-2.2,1-2.2,2.2c0,0,0,0,0,0l0,0v4.4c0,1.2,1,2.2,2.2,2.2l0,0h5.7
				c9.7,0,17.6-7.7,17.8-17.4c0-9.9-8-18-17.9-18.1c0,0,0,0,0,0H97.8z"/>
			<path class="st0" d="M235.2,22.8H220c-1.2,0-2.2,1-2.2,2.2c0,0,0,0,0,0l0,0v40c0,1.2,1,2.2,2.2,2.2h4.9c1.2,0,2.2-1,2.2-2.2V31.7
				h8.2c7.3-0.1,13.3,5.7,13.6,12.9c0.2,7.3-5.6,13.5-12.9,13.7h-1.6c-1.2,0-2.2,1-2.2,2.2c0,0,0,0,0,0l0,0V65c0,1.2,1,2.2,2.2,2.2
				l0,0h1.2c12.3,0,22.2-9.9,22.2-22.2c0,0,0,0,0,0c0-0.1,0-0.3,0-0.4C257.4,32.4,247.4,22.7,235.2,22.8z"/>
			<path class="st0" d="M342.8,29.5V25c0-1.2-1-2.2-2.2-2.2l0,0h-35.5c-1.2,0-2.2,1-2.2,2.2l0,0v4.4c0,1.2,1,2.2,2.2,2.2l0,0H318V65
				c0,1.2,1,2.2,2.2,2.2l0,0h5.3c1.2,0,2.2-1,2.2-2.2V31.7h12.9C341.8,31.7,342.8,30.7,342.8,29.5L342.8,29.5z"/>
			<path class="st0" d="M44.7,21.1c-13.2,0-23.8,10.7-23.8,23.8s10.7,23.8,23.9,23.8s23.8-10.7,23.8-23.8S57.8,21.1,44.7,21.1
				L44.7,21.1z M44.7,59.5c-8,0-14.5-6.5-14.5-14.5c0-8,6.5-14.5,14.5-14.5c8,0,14.5,6.5,14.5,14.5l0,0
				C59.2,52.9,52.7,59.5,44.7,59.5L44.7,59.5z"/>
			<path class="st1" d="M20.5,25.3c1.5-1.8,3.2-3.5,5-5c0.8-0.7,1-1.8,0.4-2.7L23,13.5c-0.6-0.9-1.8-1.2-2.8-0.6c0,0,0,0,0,0
				L20.1,13c-2.5,2-4.8,4.3-6.9,6.8c-0.7,0.9-0.6,2.1,0.3,2.8l0.1,0.1l4.1,2.9C18.6,26.2,19.8,26.1,20.5,25.3z"/>
			<path class="st1" d="M49.7,13.8c6,0.9,11.6,3.5,16.2,7.6c0.8,0.7,2,0.7,2.7-0.1l3.5-3.5c0.8-0.8,0.8-2,0-2.8c0,0,0,0,0,0
				l-0.1-0.1c-6-5.4-13.4-8.9-21.3-10c-1.1-0.2-2.1,0.6-2.3,1.7c0,0,0,0,0,0c0,0,0,0.1,0,0.1l-0.5,5C48,12.7,48.7,13.6,49.7,13.8z"
				/>
			<path class="st1" d="M13.6,56.4l-4.7,1.7c-1,0.4-1.6,1.5-1.2,2.6v0.1c0.4,0.9,0.8,1.9,1.3,2.8c0.5,1,1.7,1.4,2.7,0.9l0.1-0.1
				l4.3-2.5c0.9-0.5,1.3-1.7,0.8-2.6c-0.3-0.6-0.6-1.1-0.8-1.7C15.6,56.5,14.6,56.1,13.6,56.4z"/>
			<path class="st1" d="M30.9,16.8c3.8-1.9,8-3,12.3-3.3c1.1-0.1,1.9-0.9,1.9-2V2c0-1.1-0.9-2-2-2h-0.1c-6.5,0.3-12.8,2-18.6,5
				c-1,0.5-1.4,1.7-0.9,2.7l0,0.1l4.8,8.2C28.8,16.9,30,17.3,30.9,16.8z"/>
			<path class="st1" d="M16.1,28.1l-8.2-4.8C7,22.7,5.8,23.1,5.2,24l-0.1,0.1C0.2,33.5-1.2,44.3,1,54.6c0.2,1.1,1.3,1.8,2.4,1.6
				c0,0,0,0,0,0h0.1l9.2-2.5c1-0.3,1.6-1.3,1.4-2.3c-1.4-7-0.4-14.2,2.8-20.6C17.4,29.8,17.1,28.7,16.1,28.1z"/>
			<path class="st2" d="M51,77.8c-0.2-1-1.1-1.7-2.2-1.6c-5.2,0.6-10.4,0-15.3-1.9c-1-0.4-2.1,0.1-2.5,1L27,84c-0.5,1,0,2.2,1,2.7
				c0,0,0,0,0,0h0.1C33.5,88.9,39.2,90,45,90c2,0,4-0.1,6-0.4c1.1-0.1,1.9-1.1,1.7-2.2c0,0,0,0,0,0v-0.1L51,77.8z"/>
			<path class="st2" d="M66,68.5c-3.2,2.8-6.9,5-11,6.3c-1,0.3-1.6,1.4-1.3,2.4l1.3,4.8c0.3,1.1,1.4,1.7,2.5,1.4h0.1
				C63,81.7,68,78.8,72.2,75c0.8-0.7,0.9-2,0.2-2.8l-0.1-0.1l-3.6-3.5C67.9,67.9,66.8,67.8,66,68.5z"/>
		</g>
		<path class="st0" d="M133.3,68.9c0.6,0,1,0.4,1,1s-0.4,1-1,1c-0.6,0-1-0.4-1.1-0.9c0,0,0-0.1,0-0.1
			C132.3,69.4,132.7,68.9,133.3,68.9C133.3,68.9,133.3,68.9,133.3,68.9z"/>
		<path class="st0" d="M207.5,68.9c0.6,0,1,0.4,1,1s-0.4,1-1,1c-0.6,0-1-0.4-1.1-0.9c0,0,0-0.1,0-0.1
			C206.4,69.4,206.9,68.9,207.5,68.9C207.4,68.9,207.5,68.9,207.5,68.9z"/>
	</g>
</g>
</svg>
