<svg xmlns="http://www.w3.org/2000/svg" viewBox="0 0 72.83 89.95"><defs><style>.cls-1{fill:#fff;}.cls-2{fill:#8ecdf6;}.cls-3{fill:#fded41;}</style></defs><title>Ресурс 2</title><g id="Слой_2" data-name="Слой 2"><path class="cls-1" d="M19.67,66.55l-12,9.94a2.23,2.23,0,0,0-.22,3.22,51.36,51.36,0,0,0,5.27,5,2.23,2.23,0,0,0,3.2-.38L25.29,71.9a2.21,2.21,0,0,0-.33-3,31.23,31.23,0,0,1-2.27-2.17A2.21,2.21,0,0,0,19.67,66.55Z"/><path class="cls-1" d="M44.63,21.07A23.85,23.85,0,1,0,68.48,44.92,23.85,23.85,0,0,0,44.63,21.07Zm0,38.39A14.54,14.54,0,1,1,59.16,44.92,14.54,14.54,0,0,1,44.63,59.46Z"/><path class="cls-2" d="M20.43,25.26a31.67,31.67,0,0,1,5-5,2,2,0,0,0,.39-2.7L23,13.46A2,2,0,0,0,20.07,13a40.74,40.74,0,0,0-6.85,6.81,2,2,0,0,0,.41,2.89l4.09,2.9A2,2,0,0,0,20.43,25.26Z"/><path class="cls-2" d="M49.71,13.81a31.38,31.38,0,0,1,16.2,7.58,2,2,0,0,0,2.73-.08l3.54-3.54a2,2,0,0,0-.08-2.91,40.35,40.35,0,0,0-21.33-10,2,2,0,0,0-2.29,1.8l-.45,5A2,2,0,0,0,49.71,13.81Z"/><path class="cls-2" d="M13.58,56.38,8.86,58.09A2,2,0,0,0,7.7,60.76q.6,1.41,1.3,2.76a2,2,0,0,0,2.79.81l4.33-2.53a2,2,0,0,0,.78-2.62q-.43-.85-.82-1.73A2,2,0,0,0,13.58,56.38Z"/><path class="cls-2" d="M30.87,16.8a31.3,31.3,0,0,1,12.26-3.3,2,2,0,0,0,1.87-2V2a2,2,0,0,0-2.12-2A44.75,44.75,0,0,0,24.3,5a2,2,0,0,0-.82,2.79L28.25,16A2,2,0,0,0,30.87,16.8Z"/><path class="cls-2" d="M16.12,28.11,7.9,23.31a2,2,0,0,0-2.79.81A45.13,45.13,0,0,0,1,54.6a2,2,0,0,0,2.48,1.52l9.19-2.47a2,2,0,0,0,1.43-2.32A31.5,31.5,0,0,1,16.9,30.73,2,2,0,0,0,16.12,28.11Z"/><path class="cls-3" d="M51,77.84a2,2,0,0,0-2.19-1.62,31.37,31.37,0,0,1-15.26-1.93,2,2,0,0,0-2.54,1L27,84a2,2,0,0,0,1.07,2.7A44.86,44.86,0,0,0,45,90a45.36,45.36,0,0,0,6-.39,2,2,0,0,0,1.72-2.35Z"/><path class="cls-3" d="M65.93,68.48A31.45,31.45,0,0,1,55,74.83a2,2,0,0,0-1.29,2.41L55,82.08a2,2,0,0,0,2.56,1.38A40.45,40.45,0,0,0,72.17,75a2,2,0,0,0,.06-2.92l-3.58-3.51A2,2,0,0,0,65.93,68.48Z"/></g></svg>