<svg xmlns="http://www.w3.org/2000/svg" viewBox="0 0 490.75 97.94"><defs><style>.cls-1{fill:#fff;}</style></defs><title>logo_white</title><g id="Layer_2" data-name="Layer 2"><path class="cls-1" d="M460.18,24.19l-16,39.94a2.22,2.22,0,0,0,2.06,3h5.43a2.22,2.22,0,0,0,2.06-1.39L467.4,31.67l7.1,17.75h-8.06a2.22,2.22,0,0,0-2.22,2.22v4.44a2.22,2.22,0,0,0,2.22,2.22H478l3,7.48a2.22,2.22,0,0,0,2.06,1.39h5.43a2.22,2.22,0,0,0,2.06-3l-16-39.94a2.22,2.22,0,0,0-2.06-1.39H462.24A2.22,2.22,0,0,0,460.18,24.19Z"/><path class="cls-1" d="M432.89,47.2c0,6.05-4.41,11-10.43,11.09a10.84,10.84,0,0,1-10.87-10.94V25a2.22,2.22,0,0,0-2.22-2.22h-4.88A2.22,2.22,0,0,0,402.27,25V46.87a20.18,20.18,0,0,0,19.63,20.3,20,20,0,0,0,20.31-20V25A2.22,2.22,0,0,0,440,22.79h-4.88A2.22,2.22,0,0,0,432.89,25Z"/><path class="cls-1" d="M19.67,66.55l-12,9.94a2.23,2.23,0,0,0-.22,3.22,51.36,51.36,0,0,0,5.27,5,2.23,2.23,0,0,0,3.2-.38L25.29,71.9a2.21,2.21,0,0,0-.33-3,31.21,31.21,0,0,1-2.27-2.17A2.21,2.21,0,0,0,19.67,66.55Z"/><path class="cls-1" d="M123.57,25V65a2.22,2.22,0,0,0,2.22,2.22h31.07A2.22,2.22,0,0,0,159.07,65V60.51a2.22,2.22,0,0,0-2.22-2.22h-24V31.67h24a2.22,2.22,0,0,0,2.22-2.22V25a2.22,2.22,0,0,0-2.22-2.22H125.78A2.22,2.22,0,0,0,123.57,25Z"/><rect class="cls-1" x="137.88" y="40.54" width="17.19" height="8.88" rx="2.22" ry="2.22"/><path class="cls-1" d="M198.57,52.83l-18.87-29a2.22,2.22,0,0,0-1.86-1h-7.67A2.22,2.22,0,0,0,167.95,25V65a2.22,2.22,0,0,0,2.22,2.22H175A2.22,2.22,0,0,0,177.27,65V37.13l18.87,29a2.22,2.22,0,0,0,1.86,1h7.67A2.22,2.22,0,0,0,207.89,65V25a2.22,2.22,0,0,0-2.22-2.22h-4.88A2.22,2.22,0,0,0,198.57,25Z"/><path class="cls-1" d="M276.12,24.19l-16,39.94a2.22,2.22,0,0,0,2.06,3h5.43a2.22,2.22,0,0,0,2.06-1.39l13.64-34.11,7.1,17.75h-8.06a2.22,2.22,0,0,0-2.22,2.22v4.44a2.22,2.22,0,0,0,2.22,2.22H294l3,7.48A2.22,2.22,0,0,0,299,67.17h5.43a2.22,2.22,0,0,0,2.06-3l-16-39.94a2.22,2.22,0,0,0-2.06-1.39H278.18A2.22,2.22,0,0,0,276.12,24.19Z"/><path class="cls-1" d="M354.95,24.19,339,64.13a2.22,2.22,0,0,0,2.06,3h5.43a2.22,2.22,0,0,0,2.06-1.39l13.64-34.11,7.1,17.75H361.2A2.22,2.22,0,0,0,359,51.64v4.44a2.22,2.22,0,0,0,2.22,2.22h11.61l3,7.48a2.22,2.22,0,0,0,2.06,1.39h5.43a2.22,2.22,0,0,0,2.06-3l-16-39.94a2.22,2.22,0,0,0-2.06-1.39H357A2.22,2.22,0,0,0,354.95,24.19Z"/><path class="cls-1" d="M97.81,22.79H78.19A2.22,2.22,0,0,0,76,25V65a2.22,2.22,0,0,0,2.22,2.22h4.88A2.22,2.22,0,0,0,85.29,65V31.67H97.94A9,9,0,0,1,107,40.22a8.88,8.88,0,0,1-8.87,9.2H92.5a2.22,2.22,0,0,0-2.22,2.22v4.44A2.22,2.22,0,0,0,92.5,58.3h5.66a17.75,17.75,0,0,0,17.75-17.41A18,18,0,0,0,97.81,22.79Z"/><path class="cls-1" d="M235.15,22.79H220A2.22,2.22,0,0,0,217.76,25V65A2.22,2.22,0,0,0,220,67.17h4.88A2.22,2.22,0,0,0,227.08,65V31.67h8.16a13.49,13.49,0,0,1,13.59,12.94A13.31,13.31,0,0,1,235.52,58.3H234.3a2.22,2.22,0,0,0-2.22,2.22V65a2.22,2.22,0,0,0,2.22,2.22h1.22A22.19,22.19,0,0,0,257.7,44.6,22.43,22.43,0,0,0,235.15,22.79Z"/><path class="cls-1" d="M342.8,29.45V25a2.22,2.22,0,0,0-2.22-2.22h-35.5A2.22,2.22,0,0,0,302.86,25v4.44a2.22,2.22,0,0,0,2.22,2.22H318V65a2.22,2.22,0,0,0,2.22,2.22h5.33A2.22,2.22,0,0,0,327.71,65V31.67h12.87A2.22,2.22,0,0,0,342.8,29.45Z"/><circle class="cls-1" cx="395.62" cy="62.73" r="4.44"/><path class="cls-1" d="M44.63,21.07A23.85,23.85,0,1,0,68.48,44.92,23.85,23.85,0,0,0,44.63,21.07Zm0,38.39A14.54,14.54,0,1,1,59.16,44.92,14.54,14.54,0,0,1,44.63,59.46Z"/><path class="cls-1" d="M86.57,83.72v14H84.89V85.26H77.51V97.72H75.83v-14Z"/><path class="cls-1" d="M98.13,97.94a7.23,7.23,0,1,1,7.12-7.22A6.85,6.85,0,0,1,98.13,97.94Zm0-1.54a5.71,5.71,0,1,0-5.4-5.68A5.36,5.36,0,0,0,98.13,96.4Z"/><path class="cls-1" d="M109.86,97.7v-14c1.84,0,3.76,0,5.6,0a4.78,4.78,0,1,1,0,9.56h-3.94V97.7Zm5.6-5.94a3.29,3.29,0,0,0,0-6.58c-1.28,0-2.62,0-4,0v6.58Z"/><path class="cls-1" d="M123.36,85.22v-1.5h10.26v1.5H129.3v12.5h-1.62V85.22Z"/><path class="cls-1" d="M138.36,94.26l-1.64,3.46H135V97.5l6.52-13.84h.76l6.46,13.84v.22H147l-1.64-3.46Zm.56-1.44h5.88l-2.94-6.54Z"/><path class="cls-1" d="M153.59,97.72H152V97.5L158,83.66h.72l6.06,13.84v.22h-1.62l-4.8-11.24Z"/><path class="cls-1" d="M184.25,90.38a3.29,3.29,0,0,1,2.52,3.34c0,2.54-1.82,3.94-4.44,3.94h-6.06v-14h5.46c2.52,0,4.4,1.14,4.4,3.8A3,3,0,0,1,184.25,90.38Zm-6.3-5.24V89.8h3.44c1.78,0,3.08-.6,3.08-2.28s-1.2-2.38-2.84-2.38Zm3.44,6.1h-3.44v4.94h4c1.78,0,3.08-.76,3.1-2.46C185.17,91.74,183.27,91.24,181.39,91.24Z"/><path class="cls-1" d="M197.2,96.38v1.34h-6.52V96.38h2.42V85h-2.26V83.72H197V85h-2.26V96.38Z"/><path class="cls-1" d="M200.55,97.72V96.28H202l5.12-12.68h.72l5.32,12.68h1.56v1.44Zm3.2-1.44h7.76l-4-9.9h0Z"/><path class="cls-1" d="M233.21,97.7v-14c1.84,0,3.76,0,5.6,0a4.78,4.78,0,1,1,0,9.56h-3.94V97.7Zm5.6-5.94a3.29,3.29,0,0,0,0-6.58c-1.28,0-2.62,0-4,0v6.58Z"/><path class="cls-1" d="M248.75,97.74h-.54v-14h1.68v6.56l-.18,4,9.12-10.6h.58v14h-1.66V91l.14-3.84Z"/><path class="cls-1" d="M263.63,85.22v-1.5h9.72v1.5h-3.78v12.5h-1.62V85.22Z"/><path class="cls-1" d="M278.1,97.74h-.54v-14h1.68v6.56l-.18,4,9.12-10.6h.58v14h-1.66V91l.14-3.84Z"/><path class="cls-1" d="M299,89.26l2-3,1.8-2.56h1.78v.22L300,90.34,305,97.5v.22h-1.82l-2.32-3.28L299,91.52h-.06L297,94.4l-2.34,3.32h-1.84v-.24l5.08-7.14L293.38,84v-.24h1.8l1.82,2.6,1.94,2.94Z"/><path class="cls-1" d="M315.76,96.28h1.5l5.12-12.68h.72l5.32,12.68H330v1.44H315.76Zm3.2,0h7.76l-4-9.9h0Z"/><path class="cls-1" d="M335.8,94.26l-1.64,3.46h-1.74V97.5l6.52-13.84h.76l6.46,13.84v.22h-1.72l-1.64-3.46Zm.56-1.44h5.88l-2.94-6.54Z"/><path class="cls-1" d="M359.29,97.72V91.16h-7.4v6.56h-1.66v-14h1.66v5.9h7.4v-5.9H361v14Z"/><path class="cls-1" d="M367.22,97.74h-.54v-14h1.68v6.56l-.18,4,9.12-10.6h.58v14h-1.66V91l.14-3.84Z"/><path class="cls-1" d="M388.1,89.26l2-3,1.8-2.56h1.78v.22l-4.56,6.4,5.08,7.16v.22h-1.82L390,94.44l-1.92-2.92H388l-1.88,2.88-2.34,3.32H382v-.24l5.08-7.14L382.5,84v-.24h1.8l1.82,2.6,1.94,2.94Z"/><polygon class="cls-1" points="228.97 83.72 227.07 83.72 222.77 89.97 219.55 89.97 219.55 83.72 217.89 83.72 217.89 97.72 219.55 97.72 219.55 91.47 222.77 91.47 227.07 97.72 228.97 97.72 228.97 97.48 224.19 90.72 228.97 83.96 228.97 83.72"/><path class="cls-1" d="M20.43,25.26a31.67,31.67,0,0,1,5-5,2,2,0,0,0,.39-2.7L23,13.46A2,2,0,0,0,20.07,13a40.74,40.74,0,0,0-6.85,6.81,2,2,0,0,0,.41,2.89l4.09,2.9A2,2,0,0,0,20.43,25.26Z"/><path class="cls-1" d="M49.71,13.81a31.38,31.38,0,0,1,16.2,7.58,2,2,0,0,0,2.73-.08l3.54-3.54a2,2,0,0,0-.08-2.91,40.35,40.35,0,0,0-21.33-10,2,2,0,0,0-2.29,1.8l-.45,5A2,2,0,0,0,49.71,13.81Z"/><path class="cls-1" d="M13.58,56.38,8.86,58.09A2,2,0,0,0,7.7,60.76q.6,1.41,1.3,2.76a2,2,0,0,0,2.79.81l4.33-2.53a2,2,0,0,0,.78-2.62q-.43-.85-.82-1.73A2,2,0,0,0,13.58,56.38Z"/><path class="cls-1" d="M30.87,16.8a31.3,31.3,0,0,1,12.26-3.3,2,2,0,0,0,1.87-2V2a2,2,0,0,0-2.12-2A44.75,44.75,0,0,0,24.3,5a2,2,0,0,0-.82,2.79L28.25,16A2,2,0,0,0,30.87,16.8Z"/><path class="cls-1" d="M16.12,28.11,7.9,23.31a2,2,0,0,0-2.79.81A45.13,45.13,0,0,0,1,54.6a2,2,0,0,0,2.48,1.52l9.19-2.48a2,2,0,0,0,1.43-2.32A31.5,31.5,0,0,1,16.9,30.73,2,2,0,0,0,16.12,28.11Z"/><path class="cls-1" d="M51,77.84a2,2,0,0,0-2.19-1.62,31.37,31.37,0,0,1-15.26-1.93,2,2,0,0,0-2.54,1L27,84a2,2,0,0,0,1.07,2.7A44.86,44.86,0,0,0,45,90a45.36,45.36,0,0,0,6-.39,2,2,0,0,0,1.72-2.35Z"/><path class="cls-1" d="M65.93,68.48A31.45,31.45,0,0,1,55,74.83a2,2,0,0,0-1.29,2.41L55,82.08a2,2,0,0,0,2.56,1.38A40.45,40.45,0,0,0,72.17,75a2,2,0,0,0,.06-2.92l-3.58-3.51A2,2,0,0,0,65.93,68.48Z"/></g></svg>