<svg xmlns="http://www.w3.org/2000/svg" viewBox="0 0 201.64 37.62"><defs><style>.cls-1{fill:#fff;}.cls-2{fill:#262626;}</style></defs><title>Logo</title><g id="Layer_2" data-name="Layer 2"><g id="вып._окно" data-name="вып. окно"><path class="cls-1" d="M18.81,5.39A14.35,14.35,0,0,1,32.23,18.81h5.39A19.73,19.73,0,0,0,18.81,0Z"/><path class="cls-1" d="M5.39,18.81A12.55,12.55,0,0,1,17,7.19V1.79a17.94,17.94,0,0,0-17,17Z"/><path class="cls-1" d="M17,32.23A12.55,12.55,0,0,1,5.39,20.6H0a17.94,17.94,0,0,0,17,17Z"/><path class="cls-1" d="M30.43,20.6A12.55,12.55,0,0,1,18.81,32.23v5.39a17.94,17.94,0,0,0,17-17Z"/><polygon class="cls-1" points="25.63 12.17 7.87 19.78 15.48 22.32 18.02 29.93 25.63 12.17"/><path class="cls-1" d="M172,31.68A26.54,26.54,0,0,1,164.12,33c-4.33,0-7.46-1.09-9.65-3.2a11.48,11.48,0,0,1-3.34-8.62c0-7.89,5.77-12.39,13.55-12.39A16.35,16.35,0,0,1,171.27,10l-1.13,4.29a13.14,13.14,0,0,0-5.53-1c-4.47,0-7.85,2.53-7.85,7.67,0,4.89,3.06,7.78,7.46,7.78a7.18,7.18,0,0,0,2.64-.35v-5h-3.66V19.19H172Z"/><path class="cls-1" d="M181.61,9V32.78h-5.39V9Z"/><path class="cls-1" d="M186.43,27.25a13.69,13.69,0,0,0,5.95,1.48c2.46,0,3.77-1,3.77-2.57s-1.13-2.32-4-3.34c-3.94-1.37-6.51-3.56-6.51-7,0-4,3.38-7.15,9-7.15a14.54,14.54,0,0,1,6.06,1.2l-1.2,4.33a11.28,11.28,0,0,0-5-1.13c-2.32,0-3.45,1.06-3.45,2.29,0,1.51,1.34,2.18,4.4,3.34,4.19,1.55,6.16,3.73,6.16,7.08,0,4-3.06,7.36-9.57,7.36a15.53,15.53,0,0,1-6.72-1.44Z"/><path class="cls-2" d="M56,13.34H53v1.14h2.75v1.84H53v1.42h3.09v1.84H51V11.49h5Z"/><path class="cls-2" d="M64.16,19.58H62V16.33H59.55v3.24H57.44V11.49h2.11v2.93H62V11.49h2.11Z"/><path class="cls-2" d="M65.77,11.49h2.11v6.18h2.34V11.49h2.11v6.29h.82v2.7h-1.7v-.91H65.77Z"/><path class="cls-2" d="M74.71,19.59H74V11.49h2.11v4l4.09-4h.75v8.12H78.78v-4Z"/><path class="cls-2" d="M82.54,19.58V11.49h2.1v3.06h.15c2.07,0,2-1.55,2-3.06h2.12c0,1.65,0,3.18-1.56,4.2l2.19,3.56v.32h-2.3l-1.78-3.13a4.68,4.68,0,0,1-.8,0v3.08Z"/><path class="cls-2" d="M91.72,19.58h-2v-.3l3.64-7.89h.89l3.65,7.89v.3h-2l-2.08-4.73Z"/><path class="cls-2" d="M98,15.55c0-5.59,8.29-5.59,8.29,0S98,21.15,98,15.55Zm6.18,0a2,2,0,1,0-4.05,0A2,2,0,1,0,104.15,15.55Z"/><path class="cls-2" d="M114.1,19.58H112V13.4h-2.49v6.18h-2.11V11.49h6.72Z"/><path class="cls-2" d="M120.75,13.34h-3v1.14h2.75v1.84h-2.75v1.42h3.09v1.84H115.7V11.49h5Z"/><path class="cls-2" d="M122.87,20.49h-1.71v-2.7H122l2.77-6.4h.89l2.86,6.4h.84v2.7h-1.7V19.6h-4.78Zm1.2-2.73h2.29l-1.17-2.92Z"/><path class="cls-2" d="M133.36,17.77v1.81h-4.1V17.77h1V13.3h-.95v-1.8h3.94v1.8h-.95v4.47Z"/><path class="cls-2" d="M135,16.71a2.88,2.88,0,0,1,1.71-5.22h3.55v8.08h-2.07V17.2h-1.07l-1.39,2.38h-2.31v-.3Zm3.19-1.37v-2c-.48,0-1,0-1.48,0-1.18,0-1.12,2,0,2Z"/><path class="cls-2" d="M50.17,24.34V22.49h6v1.85h-2v6.24h-2V24.34Z"/><path class="cls-2" d="M62,24.34H59v1.14h2.75v1.84H59v1.42h3.09v1.84H57V22.49h5Z"/><path class="cls-2" d="M63.46,30.58V22.49H67c3.87,0,3.87,6,0,6H65.52v2.07ZM67,24.34c-.48,0-1,0-1.48,0v2.31H67C68.13,26.65,68.2,24.35,67,24.34Z"/><path class="cls-2" d="M71.76,30.59H71V22.49h2.11v4l4.09-4H78v8.12H75.84v-4Z"/><path class="cls-2" d="M78.78,24.34V22.49h6v1.85h-2v6.24h-2V24.34Z"/><path class="cls-2" d="M85.11,26.55c0-5.59,8.29-5.59,8.29,0S85.11,32.15,85.11,26.55Zm6.18,0a2,2,0,1,0-4.05,0A2,2,0,1,0,91.29,26.55Z"/><path class="cls-2" d="M94.5,30.58V22.49h3.56c3.87,0,3.87,6,0,6H96.57v2.07ZM98,24.34c-.49,0-1,0-1.48,0v2.31H98C99.18,26.65,99.25,24.35,98,24.34Z"/><path class="cls-2" d="M105.48,28.76v1.81h-4.1V28.76h1V24.29h-.95v-1.8h3.94v1.8h-.95v4.47Z"/><path class="cls-2" d="M107.18,30.59h-.74V22.49h2.11v4l4.09-4h.75v8.12h-2.14v-4ZM109.4,20c-.4,0-.8.07-1.19.12a2,2,0,0,0,4,0c-.39,0-.79-.09-1.19-.12-.07.48-.38.64-.85.64S109.43,20.39,109.4,20Z"/></g></g></svg>