<?xml version="1.0" encoding="utf-8"?>
<!-- Generator: Adobe Illustrator 21.0.2, SVG Export Plug-In . SVG Version: 6.00 Build 0)  -->
<svg version="1.1" id="Layer_1" xmlns="http://www.w3.org/2000/svg" xmlns:xlink="http://www.w3.org/1999/xlink" x="0px" y="0px"
	 viewBox="0 0 260 51.9" style="enable-background:new 0 0 260 51.9;" xml:space="preserve">
<style type="text/css">
	.st0{fill:#FFED00;}
	.st1{fill:#FFFFFF;}
	.st2{fill:#6DCFF6;}
	.st3{font-family:'Arial-BoldMT';}
	.st4{font-size:12px;}
</style>
<g>
	<title>logo_open</title>
	<g id="Layer_2">
		<path class="st0" d="M239.7,15.1l-8.3,20.6c-0.2,0.6,0.1,1.3,0.7,1.5c0.1,0,0.3,0.1,0.4,0.1h2.8c0.5,0,0.9-0.3,1.1-0.7l7.1-17.6
			l3.7,9.2H243c-0.6,0-1.1,0.5-1.1,1.1l0,0v2.3c0,0.6,0.5,1.1,1.1,1.1l0,0h6l1.5,3.9c0.2,0.4,0.6,0.7,1.1,0.7h2.8
			c0.6,0,1.1-0.5,1.1-1.2c0-0.1,0-0.3-0.1-0.4l-8.3-20.6c-0.2-0.4-0.6-0.7-1.1-0.7h-5.3C240.3,14.4,239.9,14.7,239.7,15.1z"/>
		<path class="st0" d="M225.6,27c0,3.1-2.3,5.7-5.4,5.7c-3.1,0-5.6-2.5-5.6-5.6c0,0,0,0,0-0.1V15.5c0-0.6-0.5-1.1-1.1-1.1l0,0H211
			c-0.6,0-1.1,0.5-1.1,1.1l0,0v11.3c0,5.7,4.5,10.3,10.1,10.5c5.7,0.1,10.4-4.5,10.5-10.2c0-0.1,0-0.1,0-0.2V15.5
			c0-0.6-0.5-1.1-1.1-1.1h-2.5c-0.6,0-1.1,0.5-1.2,1.1l0,0L225.6,27L225.6,27z"/>
		<path class="st1" d="M12.4,37l-6.2,5.1c-0.5,0.4-0.6,1.1-0.1,1.6l0,0c0.8,0.9,1.8,1.8,2.7,2.6c0.5,0.4,1.2,0.3,1.6-0.2l0,0
			l4.8-6.4c0.4-0.5,0.3-1.2-0.2-1.5c-0.4-0.4-0.8-0.7-1.2-1.1C13.5,36.6,12.8,36.6,12.4,37z"/>
		<path class="st1" d="M66,15.5v20.6c0,0.6,0.5,1.1,1.1,1.1l0,0h16c0.6,0,1.1-0.5,1.1-1.1v-2.3c0-0.6-0.5-1.1-1.1-1.1l0,0H70.8V19
			h12.4c0.6,0,1.1-0.5,1.1-1.1l0,0v-2.4c0-0.6-0.5-1.1-1.1-1.1l0,0h-16C66.5,14.4,66,14.9,66,15.5z"/>
		<path class="st1" d="M74.5,23.6h6.6c0.6,0,1.1,0.5,1.1,1.1V27c0,0.6-0.5,1.1-1.1,1.1h-6.6c-0.6,0-1.1-0.5-1.1-1.1v-2.3
			C73.4,24.1,73.9,23.6,74.5,23.6z"/>
		<path class="st1" d="M104.7,29.9l-9.7-15c-0.2-0.3-0.6-0.5-1-0.5h-4c-0.6,0-1.1,0.5-1.1,1.1v20.6c0,0.6,0.5,1.1,1.1,1.1l0,0h2.5
			c0.6,0,1.2-0.5,1.2-1.1l0,0V21.8l9.7,15c0.2,0.3,0.6,0.5,1,0.5h4c0.6,0,1.1-0.5,1.1-1.1V15.5c0-0.6-0.5-1.1-1.1-1.1l0,0h-2.5
			c-0.6,0-1.1,0.5-1.1,1.1L104.7,29.9L104.7,29.9z"/>
		<path class="st1" d="M144.7,15.1l-8.3,20.6c-0.2,0.6,0.1,1.3,0.7,1.5c0.1,0,0.3,0.1,0.4,0.1h2.8c0.5,0,0.9-0.3,1.1-0.7l7-17.6
			l3.7,9.2h-4.2c-0.6,0-1.1,0.5-1.1,1.1l0,0v2.3c0,0.6,0.5,1.1,1.1,1.1l0,0h6l1.5,3.9c0.2,0.4,0.6,0.7,1,0.7h2.8
			c0.6,0,1.1-0.5,1.1-1.2c0-0.1,0-0.3-0.1-0.4l-8.3-20.6c-0.2-0.4-0.6-0.7-1.1-0.7h-5.3C145.3,14.4,144.9,14.7,144.7,15.1z"/>
		<path class="st1" d="M185.4,15.1l-8.2,20.6c-0.2,0.6,0.1,1.3,0.7,1.5c0.1,0,0.3,0.1,0.4,0.1h2.8c0.5,0,0.9-0.3,1.1-0.7l7-17.6
			l3.7,9.2h-4.2c-0.6,0-1.1,0.5-1.1,1.2l0,0v2.3c0,0.6,0.5,1.1,1.1,1.1l0,0h6l1.5,3.9c0.2,0.4,0.6,0.7,1.1,0.7h2.8
			c0.6,0,1.1-0.5,1.1-1.2c0-0.1,0-0.3-0.1-0.4l-8.3-20.6c-0.2-0.4-0.6-0.7-1.1-0.7h-5.3C186,14.4,185.6,14.7,185.4,15.1z"/>
		<path class="st1" d="M52.7,14.4H42.6c-0.6,0-1.1,0.5-1.1,1.1v20.6c0,0.6,0.5,1.1,1.1,1.1l0,0h2.5c0.6,0,1.1-0.5,1.1-1.1V19h6.5
			c2.5,0,4.6,1.9,4.7,4.4c0.1,2.5-1.9,4.7-4.4,4.7c-0.1,0-0.1,0-0.2,0h-2.9c-0.6,0-1.1,0.5-1.1,1.1l0,0v2.3c0,0.6,0.5,1.1,1.1,1.1
			h2.9c5,0,9.1-4,9.2-9C62,18.5,57.9,14.3,52.7,14.4C52.8,14.4,52.7,14.4,52.7,14.4z"/>
		<path class="st1" d="M123.6,14.4h-7.8c-0.6,0-1.2,0.5-1.2,1.1l0,0v20.6c0,0.6,0.5,1.1,1.2,1.1h2.5c0.6,0,1.1-0.5,1.1-1.1V19h4.2
			c3.8,0,6.9,2.9,7,6.7s-2.9,7-6.7,7.1c-0.1,0-0.1,0-0.2,0h-0.6c-0.6,0-1.1,0.5-1.1,1.1l0,0v2.3c0,0.6,0.5,1.1,1.1,1.1l0,0h0.6
			c6.3,0,11.5-5.1,11.4-11.5c0-0.1,0-0.1,0-0.2C135,19.4,129.9,14.4,123.6,14.4z"/>
		<path class="st1" d="M179.1,17.8v-2.3c0-0.6-0.5-1.1-1.1-1.1l0,0h-18.3c-0.6,0-1.1,0.5-1.1,1.1l0,0v2.3c0,0.6,0.5,1.1,1.1,1.1l0,0
			h6.7v17.2c0,0.6,0.5,1.1,1.1,1.1l0,0h2.8c0.6,0,1.1-0.5,1.1-1.1V19h6.6C178.6,19,179.1,18.5,179.1,17.8L179.1,17.8z"/>
		<circle class="st1" cx="206.4" cy="35" r="2.3"/>
		<path class="st1" d="M25.2,13.5c-6.8,0-12.3,5.5-12.3,12.3s5.5,12.3,12.3,12.3s12.3-5.5,12.3-12.3S32,13.5,25.2,13.5L25.2,13.5z
			 M25.2,33.3c-4.1,0-7.5-3.4-7.5-7.5s3.4-7.5,7.5-7.5s7.5,3.4,7.5,7.5l0,0C32.7,30,29.4,33.3,25.2,33.3z"/>
		<path class="st2" d="M12.8,15.7c0.8-1,1.6-1.8,2.6-2.6c0.4-0.3,0.5-0.9,0.2-1.4l-1.5-2.1c-0.3-0.5-1-0.6-1.4-0.3
			c0,0-0.1,0-0.1,0.1c-1.3,1-2.5,2.2-3.5,3.5c-0.4,0.4-0.3,1.1,0.2,1.5c0,0,0,0,0.1,0l2.1,1.5C11.8,16.3,12.4,16.1,12.8,15.7z"/>
		<path class="st2" d="M27.9,9.8c3.1,0.5,6,1.8,8.4,3.9c0.4,0.4,1,0.3,1.4,0l1.8-1.8c0.4-0.4,0.4-1.1,0-1.5l0,0
			c-3.1-2.8-6.9-4.6-11-5.2c-0.6-0.1-1.1,0.3-1.2,0.9c0,0,0,0,0,0.1l-0.2,2.6C27,9.2,27.3,9.7,27.9,9.8z"/>
		<path class="st2" d="M9.2,31.8l-2.4,0.9C6.2,32.9,6,33.5,6.2,34c0,0,0,0,0,0.1c0.2,0.5,0.4,1,0.7,1.4c0.3,0.5,0.9,0.7,1.4,0.4l0,0
			l2.2-1.3c0.5-0.3,0.6-0.9,0.4-1.4c-0.1-0.3-0.3-0.6-0.4-0.9C10.3,31.8,9.7,31.6,9.2,31.8z"/>
		<path class="st2" d="M18.1,11.3c2-1,4.1-1.6,6.3-1.7c0.5,0,1-0.5,1-1V3.7c0-0.6-0.5-1-1-1c0,0,0,0-0.1,0c-3.3,0.2-6.6,1-9.6,2.6
			c-0.5,0.2-0.7,0.8-0.4,1.3c0,0,0,0,0,0.1l2.5,4.2C17.1,11.4,17.7,11.5,18.1,11.3z"/>
		<path class="st2" d="M10.5,17.1l-4.2-2.5c-0.5-0.2-1.1-0.1-1.4,0.4l0,0c-2.6,4.9-3.3,10.5-2.2,15.8c0.1,0.6,0.7,0.9,1.2,0.8
			c0,0,0,0,0.1,0l4.7-1.3c0.5-0.1,0.8-0.7,0.7-1.2c-0.7-3.6-0.2-7.4,1.4-10.6C11.2,18,11,17.4,10.5,17.1z"/>
		<path class="st0" d="M28.5,42.8c-0.1-0.5-0.6-0.9-1.1-0.8c-2.7,0.3-5.4,0-7.9-1c-0.5-0.2-1.1,0-1.3,0.5L16.1,46
			c-0.2,0.5,0,1.1,0.5,1.4c0,0,0,0,0.1,0c2.8,1.1,5.7,1.7,8.7,1.7c1,0,2.1-0.1,3.1-0.2c0.6-0.1,1-0.6,0.9-1.2c0,0,0,0,0-0.1
			L28.5,42.8z"/>
		<path class="st0" d="M36.2,38c-1.6,1.5-3.6,2.6-5.6,3.3c-0.5,0.2-0.8,0.7-0.7,1.2l0.7,2.5c0.1,0.6,0.7,0.9,1.3,0.7c0,0,0,0,0.1,0
			c2.8-0.9,5.4-2.4,7.5-4.4c0.4-0.4,0.5-1,0.1-1.5l0,0L37.8,38C37.3,37.6,36.6,37.6,36.2,38z"/>
	</g>
	<text transform="matrix(1 0 0 1 43.7767 49.1498)" class="st1 st3 st4">G I S</text>
</g>
</svg>
