<?xml version="1.0" encoding="utf-8"?>
<!-- Generator: Adobe Illustrator 20.1.0, SVG Export Plug-In . SVG Version: 6.00 Build 0)  -->
<svg version="1.1" id="Layer_1" xmlns="http://www.w3.org/2000/svg" xmlns:xlink="http://www.w3.org/1999/xlink" x="0px" y="0px"
	 viewBox="0 0 31 24" style="enable-background:new 0 0 31 24;" xml:space="preserve">
<style type="text/css">
	.st0{fill:#D65B43;}
	.st1{fill:#FFFFFF;}
</style>
<path class="st0" d="M12,0.5h7c6.4,0,11.5,5.1,11.5,11.5v0c0,6.4-5.1,11.5-11.5,11.5h-7C5.7,23.5,0.5,18.4,0.5,12v0
	C0.5,5.6,5.7,0.5,12,0.5z"/>
<path class="st1" d="M12.7,2.7h5.6c5.1,0,9.3,4.2,9.3,9.3v0c0,5.1-4.2,9.3-9.3,9.3h-5.6c-5.1,0-9.3-4.2-9.3-9.3v0
	C3.4,6.9,7.6,2.7,12.7,2.7z"/>
</svg>
