<?xml version="1.0" encoding="utf-8"?>
<!-- Generator: Adobe Illustrator 20.1.0, SVG Export Plug-In . SVG Version: 6.00 Build 0)  -->
<svg version="1.1" id="Layer_1" xmlns="http://www.w3.org/2000/svg" xmlns:xlink="http://www.w3.org/1999/xlink" x="0px" y="0px"
	 viewBox="0 0 20 20" style="enable-background:new 0 0 20 20;" xml:space="preserve">
<style type="text/css">
	.st0{fill:#00B9F2;}
</style>
<title>website</title>
<g id="Layer_2">
	<g id="вып._окно">
		<path class="st0" d="M9.1,19.5v-4.2c-1.8,0.2-3.6,1-4.9,2.2C5.6,18.6,7.3,19.3,9.1,19.5z"/>
		<path class="st0" d="M10.9,0.5v4.2c1.8-0.2,3.6-1,4.9-2.2C14.4,1.4,12.7,0.7,10.9,0.5z"/>
		<path class="st0" d="M10.9,15.3v4.2c1.8-0.2,3.5-0.8,4.9-2C14.4,16.3,12.7,15.5,10.9,15.3z"/>
		<path class="st0" d="M9.1,4.7V0.5c-1.8,0.2-3.6,0.8-5,2C5.5,3.8,7.3,4.5,9.1,4.7z"/>
		<path class="st0" d="M10.9,10.9v2.6c2.3,0.2,4.5,1.2,6.2,2.8c1.3-1.5,2.2-3.4,2.3-5.4H10.9z"/>
		<path class="st0" d="M10.9,6.5v2.7h8.6c-0.2-2-1.1-4-2.4-5.5C15.4,5.3,13.2,6.3,10.9,6.5z"/>
		<path class="st0" d="M9.1,13.5v-2.6H0.5c0.2,2,1,3.9,2.3,5.4C4.6,14.7,6.8,13.7,9.1,13.5z"/>
		<path class="st0" d="M9.1,9.2V6.5C6.8,6.3,4.6,5.3,2.8,3.7C1.5,5.2,0.7,7.1,0.5,9.2H9.1z"/>
	</g>
</g>
</svg>
