<?xml version="1.0" encoding="utf-8"?>
<!-- Generator: Adobe Illustrator 20.1.0, SVG Export Plug-In . SVG Version: 6.00 Build 0)  -->
<svg version="1.1" id="Layer_1" xmlns="http://www.w3.org/2000/svg" xmlns:xlink="http://www.w3.org/1999/xlink" x="0px" y="0px"
	 viewBox="0 0 13.3 14.3" style="enable-background:new 0 0 13.3 14.3;" xml:space="preserve">
<style type="text/css">
	.st0{fill:#00B9F2;}
</style>
<title>20</title>
<g id="Layer_2">
	<g id="вып._окно">
		<path class="st0" d="M11.6,10.2l-1.3-0.2l0,0L9.4,9.8l0,0L8.7,8.9c0.8-0.8,1.2-1.9,1.2-3c0-0.2,0-0.5,0-0.7c0,0,0-0.1,0-0.1
			c0.5-1.4,0.6-2.9,0.3-4.3c0-0.1-0.1-0.1-0.2-0.1c-0.6,0-1.2,0-1.8-0.2C7,0,5.8,0.1,4.7,0.6l0,0c-1,0-1.8,0.7-1.8,1.7
			c0,0.1,0,0.2,0,0.3c0.1,1,0.2,1.9,0.4,2.8l0,0c0,0.1,0,0.3,0,0.4c0,1.1,0.4,2.2,1.2,3L3.9,9.7l0,0L3.1,9.8l-1.4,0.2
			c-0.9,0.3-1.5,1.1-1.4,2.1v1.4c0,0.3,0.3,0.6,0.7,0.6c0,0,0,0,0,0h11.3c0.3,0,0.6-0.2,0.7-0.6c0,0,0,0,0,0v-1.4
			C13,11.2,12.4,10.4,11.6,10.2z"/>
	</g>
</g>
</svg>
